<svg xmlns="http://www.w3.org/2000/svg" version="1.1" xmlns:xlink="http://www.w3.org/1999/xlink" xmlns:svgjs="http://svgjs.dev/svgjs" width="1500" height="1500" viewBox="0 0 1500 1500"><rect width="1500" height="1500" fill="#403f3f"></rect><g transform="matrix(0.6666666666666666,0,0,0.6666666666666666,249.50000000000006,249.50052780041528)"><svg viewBox="0 0 280 280" data-background-color="#403f3f" preserveAspectRatio="xMidYMid meet" height="1500" width="1500" xmlns="http://www.w3.org/2000/svg" xmlns:xlink="http://www.w3.org/1999/xlink"><g id="tight-bounds" transform="matrix(1,0,0,1,0.13999999999998636,0.14014778411623752)"><svg viewBox="0 0 279.72 279.72" height="279.72" width="279.72"><g><svg viewBox="0 0 279.72 279.72" height="279.72" width="279.72"><g><svg viewBox="0 0 279.72 279.72" height="279.72" width="279.72"><g id="textblocktransform"><svg viewBox="0 0 279.72 279.72" height="279.72" width="279.72" id="textblock"><g><svg viewBox="0 0 279.72 279.72" height="279.72" width="279.72"><g transform="matrix(1,0,0,1,48.381242164505736,48.381242164505736)"><svg viewBox="0 0 182.95751567098856 182.95751567098856" height="182.95751567098856" width="182.95751567098856"><g id="icon-0"><circle r="91" cx="91.47875783549428" cy="91.47875783549428" fill="#77ee64" data-fill-palette-color="accent"></circle><svg xmlns="http://www.w3.org/2000/svg" xmlns:xlink="http://www.w3.org/1999/xlink" version="1.1" x="27.44362735064828" y="27.44362735064828" viewBox="10.125 10.359 80 79.641" style="enable-background:new 0 0 100 100;" xml:space="preserve" height="128.070260969692" width="128.070260969692" class="icon-jxe-0" data-fill-palette-color="quaternary" id="jxe-0"><path d="M56.76 59.72A1 1 0 0 0 55.76 60.72V64.805A1 1 0 1 0 57.76 64.805V60.72A1 1 0 0 0 56.76 59.72" fill="#444444" data-fill-palette-color="quaternary"></path><path d="M90.12 36.33L88.115 17.09C88.123 17.04 88.145 16.994 88.145 16.942V11.359A1 1 0 0 0 87.145 10.359H13.131A1 1 0 0 0 12.131 11.359V16.942C12.131 16.965 12.142 16.983 12.144 17.006L10.13 36.33C10.126 36.372 10.142 36.411 10.143 36.453 10.14 36.484 10.125 36.512 10.125 36.544A5.76 5.76 0 0 0 12.131 40.901V89A1 1 0 0 0 13.131 90H86.866A1 1 0 0 0 87.866 89V41.109C89.238 40.046 90.125 38.397 90.125 36.545 90.125 36.513 90.11 36.485 90.107 36.454 90.108 36.411 90.124 36.372 90.12 36.33M80.111 12.358H86.144V15.941H80.111zM70.271 12.358H78.111V15.941H70.271zM78.257 37.434C77.846 39.102 76.323 40.348 74.5 40.348S71.154 39.102 70.743 37.434zM70.271 17.941H78.111V35.433H70.271zM60.875 12.358H68.271V15.941H60.875zM60.875 17.941H68.271V35.433H60.875zM51.138 12.358H58.875V15.941H51.138zM51.138 17.941H58.875V35.433H51.138zM58.757 37.434C58.346 39.102 56.823 40.348 55 40.348S51.654 39.102 51.243 37.434zM41.375 12.358H49.138V15.941H41.375zM41.375 17.941H49.138V35.433H41.375zM49.007 37.434C48.596 39.102 47.073 40.348 45.25 40.348S41.904 39.102 41.493 37.434zM31.625 12.358H39.375V15.941H31.625zM31.625 17.941H39.375V35.433H31.625zM21.703 12.358H29.625V15.941H21.703zM21.703 17.941H29.625V35.433H21.703zM29.507 37.434C29.096 39.102 27.573 40.348 25.75 40.348S22.404 39.102 21.993 37.434zM14.131 12.358H19.703V15.941H14.131zM14.058 17.941H19.704V35.433H12.236zM12.243 37.434H19.757C19.346 39.102 17.823 40.348 16 40.348S12.654 39.101 12.243 37.434M16.387 88H14.132V72.269H16.387zM20.477 88H18.387V72.269H20.477zM24.566 88H22.476V72.269H24.566zM28.656 88H26.566V72.269H28.656zM32.746 88H30.656V72.269H32.746zM37.076 88H34.746V72.269H37.076zM37.076 70.269H14.131V42.042A5.895 5.895 0 0 0 20.875 39.779C21.931 41.327 23.722 42.348 25.75 42.348S29.569 41.327 30.625 39.779A5.89 5.89 0 0 0 37.076 42.13zM35.5 40.348A3.86 3.86 0 0 1 31.743 37.434H39.257A3.86 3.86 0 0 1 35.5 40.348M60.922 88H39.076V85.177H60.922zM60.922 83.177H39.076V41.138A5.9 5.9 0 0 0 40.375 39.779C41.431 41.327 43.222 42.348 45.25 42.348S49.069 41.327 50.125 39.779C51.181 41.327 52.972 42.348 55 42.348S58.819 41.327 59.875 39.779A6 6 0 0 0 60.922 40.937zM60.993 37.434H68.507C68.096 39.102 66.573 40.348 64.75 40.348S61.404 39.101 60.993 37.434M65.066 88H62.921V72.269H65.066zM69.187 88H67.067V72.269H69.187zM73.307 88H71.187V72.269H73.307zM77.427 88H75.307V72.269H77.427zM81.547 88H79.427V72.269H81.547zM85.866 88H83.547V72.269H85.866zM85.866 70.269H62.922V42.056A5.89 5.89 0 0 0 69.625 39.778C70.681 41.326 72.472 42.347 74.5 42.347S78.319 41.326 79.375 39.778A5.89 5.89 0 0 0 85.866 42.118zM84.25 40.348A3.86 3.86 0 0 1 80.493 37.434H88.007A3.86 3.86 0 0 1 84.25 40.348M80.111 35.434V17.941H86.192L88.015 35.433z" fill="#444444" data-fill-palette-color="quaternary"></path></svg></g></svg></g><g id="text-0"><path d="M19.74 102.451l-1.061 3.379c-0.241 0.766-0.52 1.316-0.836 1.648-0.319 0.339-0.719 0.506-1.201 0.501-0.477 0.004-1.079-0.108-1.805-0.336v0l-9.996-3.141c-0.74-0.232-1.304-0.487-1.693-0.762-0.391-0.269-0.621-0.634-0.689-1.095-0.063-0.452 0.026-1.061 0.267-1.827v0l0.961-3.059c0.559-1.779 1.316-3.046 2.27-3.801 0.952-0.748 2.022-0.935 3.208-0.562v0c0.586 0.184 1.078 0.485 1.473 0.902 0.403 0.419 0.706 0.899 0.91 1.439 0.204 0.54 0.312 1.094 0.324 1.661v0l0.04 0.013c0.292-0.626 0.69-1.149 1.196-1.569 0.505-0.42 1.074-0.702 1.705-0.848 0.64-0.15 1.31-0.116 2.01 0.105v0c1.033 0.324 1.827 0.849 2.383 1.572 0.549 0.722 0.866 1.579 0.949 2.572 0.084 0.993-0.055 2.062-0.414 3.208zM7.021 101.234l7.887 2.477c0.5 0.157 0.884 0.182 1.151 0.076 0.27-0.113 0.481-0.413 0.634-0.899v0l0.267-0.849c0.234-0.746 0.231-1.41-0.012-1.992-0.244-0.575-0.699-0.967-1.366-1.176v0c-0.64-0.201-1.209-0.138-1.706 0.189-0.507 0.331-0.871 0.85-1.093 1.557v0l0.003-0.01c-0.057 0.18-0.122 0.306-0.196 0.377v0c-0.187 0.153-0.396 0.304-0.625 0.452-0.231 0.154-0.505 0.314-0.82 0.478v0c-0.116 0.044-0.198 0.059-0.244 0.044v0c-0.06-0.019-0.118-0.077-0.176-0.176v0c-0.165-0.315-0.301-0.603-0.409-0.864-0.104-0.252-0.185-0.494-0.245-0.725v0c-0.02-0.123-0.005-0.265 0.046-0.425v0l-0.003 0.01c0.138-0.44 0.102-0.894-0.11-1.363-0.211-0.469-0.664-0.813-1.357-1.03v0c-0.706-0.222-1.238-0.173-1.594 0.147-0.357 0.32-0.631 0.786-0.824 1.399v0l-0.192 0.61c-0.153 0.486-0.154 0.852-0.004 1.097 0.152 0.238 0.481 0.437 0.988 0.596z" fill="#ffffff" data-fill-palette-color="primary"></path><path d="M25.691 88.35v0c-0.546 1.194-1.215 2.144-2.007 2.85-0.785 0.709-1.696 1.121-2.733 1.238-1.037 0.117-2.2-0.119-3.489-0.709v0c-1.931-0.884-3.165-2.047-3.703-3.492-0.537-1.444-0.431-2.986 0.319-4.624v0c0.488-1.067 1.095-1.88 1.819-2.44 0.721-0.569 1.502-0.891 2.344-0.967 0.851-0.079 1.708 0.079 2.572 0.474v0c0.838 0.384 1.327 0.868 1.466 1.454 0.133 0.583 0.01 1.287-0.368 2.113v0l-2.084 4.554c0.757 0.277 1.434 0.265 2.034-0.037 0.602-0.308 1.09-0.872 1.465-1.692v0c0.296-0.648 0.436-1.214 0.419-1.697-0.01-0.481-0.038-0.824-0.082-1.029v0c-0.041-0.18-0.018-0.354 0.066-0.523v0c0.061-0.133 0.178-0.314 0.352-0.542 0.164-0.224 0.373-0.429 0.626-0.612v0c0.177-0.134 0.344-0.165 0.503-0.092v0c0.095 0.044 0.22 0.124 0.374 0.24v0c0.087 0.063 0.213 0.163 0.381 0.301 0.161 0.135 0.307 0.279 0.437 0.43v0c0.056 0.079 0.098 0.179 0.127 0.301v0c0.038 0.186 0.063 0.474 0.077 0.864 0.023 0.387-0.031 0.881-0.16 1.483-0.123 0.604-0.375 1.323-0.755 2.154zM17.646 87.826v0l1.583-3.458c0.166-0.362 0.083-0.619-0.247-0.77v0c-0.502-0.23-0.997-0.264-1.486-0.103-0.485 0.154-0.872 0.546-1.159 1.174v0c-0.314 0.686-0.326 1.291-0.036 1.816 0.29 0.524 0.738 0.972 1.345 1.341z" fill="#ffffff" data-fill-palette-color="primary"></path><path d="M28.821 67.003v0l5.833 3.516c0.197 0.119 0.31 0.244 0.337 0.375 0.027 0.131-0.019 0.295-0.138 0.492v0l-1.238 2.055c-0.123 0.203-0.248 0.324-0.377 0.36-0.128 0.037-0.291-0.004-0.488-0.123v0l-5.312-3.203c-0.724-0.436-1.345-0.603-1.864-0.499-0.519 0.103-0.937 0.418-1.255 0.944v0c-0.317 0.526-0.447 0.999-0.389 1.417 0.058 0.418 0.213 0.81 0.466 1.174v0l6.201 3.738c0.197 0.119 0.31 0.244 0.337 0.374 0.027 0.131-0.019 0.295-0.138 0.493v0l-1.244 2.063c-0.119 0.197-0.243 0.315-0.371 0.352-0.128 0.037-0.291-0.004-0.488-0.123v0l-8.372-5.047c-0.156-0.094-0.258-0.201-0.309-0.321v0c-0.099-0.255-0.185-0.539-0.257-0.852-0.082-0.31-0.144-0.674-0.186-1.091v0c-0.012-0.129 0.006-0.233 0.053-0.311v0c0.043-0.072 0.127-0.136 0.25-0.192v0c0.385-0.151 0.738-0.264 1.061-0.339 0.316-0.078 0.629-0.13 0.938-0.156v0l0.033-0.054c-0.081-0.204-0.151-0.474-0.209-0.811-0.06-0.346-0.044-0.773 0.05-1.279 0.09-0.501 0.327-1.071 0.713-1.711v0c0.379-0.628 0.866-1.146 1.462-1.553 0.594-0.417 1.298-0.624 2.113-0.623 0.818-0.004 1.748 0.307 2.788 0.935z" fill="#ffffff" data-fill-palette-color="primary"></path><path d="M36.268 51.906v0l7.425 5.864c1.782 1.407 2.738 2.985 2.869 4.735 0.127 1.756-0.507 3.516-1.901 5.281v0c-0.58 0.735-1.091 1.275-1.532 1.62-0.447 0.341-0.804 0.584-1.071 0.73v0c-0.179 0.081-0.322 0.115-0.428 0.103v0c-0.146-0.018-0.343-0.062-0.59-0.133-0.252-0.075-0.517-0.168-0.794-0.279v0c-0.105-0.047-0.17-0.094-0.195-0.141v0c-0.048-0.074-0.08-0.17-0.094-0.288v0c-0.023-0.196-0.026-0.457-0.01-0.782 0.018-0.315 0.048-0.545 0.091-0.689v0c0.047-0.15 0.137-0.252 0.27-0.308v0c0.213-0.09 0.489-0.241 0.826-0.455 0.343-0.209 0.727-0.583 1.152-1.12v0c0.675-0.855 1.004-1.722 0.985-2.6-0.02-0.888-0.485-1.691-1.395-2.41v0l-0.337-0.266-0.026 0.033c0.067 0.276 0.106 0.587 0.117 0.933 0.007 0.352-0.064 0.746-0.212 1.182-0.142 0.439-0.423 0.925-0.843 1.456v0c-0.727 0.921-1.523 1.517-2.386 1.788-0.868 0.276-1.761 0.274-2.679-0.006-0.922-0.275-1.833-0.767-2.732-1.477v0c-0.981-0.775-1.733-1.631-2.256-2.569-0.529-0.942-0.719-1.974-0.573-3.096 0.147-1.121 0.744-2.345 1.792-3.672v0c0.623-0.789 1.21-1.408 1.758-1.855 0.539-0.446 1.039-0.786 1.499-1.019 0.46-0.233 0.883-0.42 1.27-0.56zM33.883 57.192v0c-0.563 0.713-0.751 1.441-0.564 2.185 0.177 0.745 0.767 1.514 1.77 2.306v0c1.568 1.238 2.863 1.21 3.885-0.084v0c0.398-0.504 0.599-0.973 0.603-1.406 0.004-0.433-0.101-0.841-0.316-1.224v0l-3.774-2.98c-0.203 0.054-0.445 0.169-0.728 0.346-0.273 0.176-0.565 0.462-0.876 0.857z" fill="#ffffff" data-fill-palette-color="primary"></path><path d="M49.952 53.744v0c-0.807 0.803-1.677 1.217-2.61 1.24-0.929 0.018-1.79-0.371-2.583-1.168v0c-0.414-0.416-0.719-0.876-0.916-1.38-0.206-0.504-0.257-1.08-0.153-1.727 0.11-0.652 0.42-1.399 0.931-2.243 0.52-0.844 1.293-1.805 2.317-2.885v0c-0.498-0.5-0.981-0.738-1.451-0.714-0.469 0.034-0.954 0.299-1.453 0.798v0c-0.45 0.449-0.743 0.893-0.877 1.331-0.134 0.439-0.211 0.723-0.231 0.852v0c-0.005 0.143-0.075 0.262-0.209 0.355v0c-0.168 0.128-0.364 0.249-0.586 0.362-0.222 0.113-0.465 0.226-0.726 0.339v0c-0.04 0.02-0.089 0.034-0.149 0.045-0.054 0.005-0.109-0.015-0.162-0.06v0c-0.03-0.03-0.062-0.067-0.097-0.111-0.034-0.045-0.099-0.134-0.192-0.267v0c-0.084-0.134-0.185-0.304-0.302-0.512-0.123-0.203-0.207-0.366-0.251-0.49v0c-0.044-0.143-0.049-0.316-0.014-0.518v0c0.015-0.173 0.174-0.578 0.476-1.214 0.303-0.646 0.902-1.416 1.798-2.308v0c2.474-2.465 4.912-2.492 7.312-0.082v0l4.659 4.676c0.104 0.104 0.163 0.223 0.177 0.356 0.019 0.128-0.04 0.262-0.179 0.4v0l-1.239 1.235c-0.089 0.089-0.181 0.155-0.275 0.199-0.094 0.044-0.205 0.061-0.333 0.052v0l-1.178-0.158-0.06 0.059c0.117 0.623 0.044 1.227-0.218 1.815-0.258 0.592-0.667 1.167-1.226 1.723zM48.958 50.92v0c0.505-0.503 0.755-1.014 0.751-1.532 0.006-0.519-0.094-0.951-0.301-1.298v0l-0.91-0.913c-0.767 0.764-1.282 1.395-1.545 1.894-0.263 0.498-0.365 0.906-0.306 1.222 0.059 0.316 0.199 0.586 0.421 0.808v0c0.32 0.322 0.644 0.443 0.97 0.365 0.321-0.073 0.628-0.256 0.92-0.546z" fill="#ffffff" data-fill-palette-color="primary"></path><path d="M60.573 42.52l-1.164 2.416c-0.079 0.157-0.145 0.257-0.199 0.302v0c-0.054 0.045-0.126 0.073-0.216 0.084v0c-0.22 0.02-0.575-0.085-1.065-0.313-0.486-0.223-1.053-0.723-1.701-1.501v0l-8.646-10.375c-0.121-0.145-0.183-0.279-0.186-0.404v0c-0.021-0.537 0.052-1.198 0.217-1.981v0c0.032-0.136 0.081-0.231 0.145-0.285v0c0.08-0.067 0.182-0.097 0.306-0.091v0c0.419-0.021 0.79-0.017 1.115 0.012 0.315 0.029 0.606 0.072 0.873 0.132v0c0.122 0.026 0.243 0.111 0.364 0.256v0l8.189 9.828c0.331 0.397 0.643 0.706 0.935 0.926 0.297 0.225 0.56 0.383 0.79 0.473v0c0.267 0.114 0.348 0.287 0.243 0.521z" fill="#ffffff" data-fill-palette-color="primary"></path><path d="M75.561 30.276v0c0.487-0.287 0.844-0.563 1.07-0.826 0.216-0.266 0.356-0.518 0.417-0.757 0.071-0.237 0.12-0.464 0.145-0.681v0c0.03-0.196 0.059-0.347 0.086-0.452 0.033-0.109 0.106-0.212 0.218-0.311v0c0.087-0.1 0.244-0.225 0.472-0.376 0.237-0.148 0.473-0.291 0.708-0.43 0.241-0.142 0.413-0.235 0.516-0.28v0c0.142-0.076 0.254-0.105 0.337-0.089v0c0.083 0.016 0.174 0.096 0.275 0.24v0c0.146 0.206 0.309 0.455 0.488 0.745 0.174 0.295 0.317 0.551 0.429 0.769v0c0.033 0.07 0.055 0.134 0.065 0.193 0.016 0.055 0.026 0.147 0.029 0.275v0c-0.006 0.141-0.048 0.373-0.126 0.695-0.072 0.318-0.23 0.695-0.476 1.132-0.248 0.446-0.622 0.918-1.123 1.416-0.503 0.508-1.185 1.015-2.046 1.523v0c-0.927 0.546-1.861 0.935-2.803 1.166-0.945 0.241-1.888 0.258-2.828 0.051-0.932-0.205-1.851-0.684-2.759-1.439-0.901-0.758-1.776-1.856-2.623-3.294v0c-0.94-1.594-1.462-3.111-1.565-4.551-0.103-1.44 0.182-2.751 0.855-3.934 0.673-1.183 1.707-2.187 3.102-3.01v0c0.975-0.575 1.82-0.936 2.537-1.082 0.707-0.149 1.293-0.179 1.76-0.089 0.473 0.086 0.831 0.191 1.074 0.315v0c0.088 0.053 0.16 0.1 0.216 0.14 0.054 0.05 0.119 0.133 0.196 0.25v0c0.116 0.142 0.261 0.373 0.433 0.693 0.169 0.314 0.305 0.599 0.407 0.855v0c0.055 0.162 0.067 0.285 0.035 0.369v0c-0.01 0.038-0.041 0.089-0.093 0.152-0.062 0.061-0.159 0.13-0.291 0.208v0c-0.211 0.124-0.457 0.257-0.738 0.398-0.278 0.148-0.49 0.248-0.637 0.303v0c-0.171 0.068-0.311 0.098-0.421 0.09-0.101-0.006-0.219-0.041-0.355-0.107v0c-0.223-0.104-0.548-0.18-0.974-0.228-0.43-0.055-0.984 0.118-1.664 0.519v0c-0.951 0.561-1.516 1.389-1.697 2.485-0.184 1.09 0.208 2.456 1.176 4.099v0c0.965 1.637 2.002 2.659 3.111 3.067 1.109 0.409 2.129 0.338 3.062-0.212z" fill="#ffffff" data-fill-palette-color="primary"></path><path d="M90.159 26.579v0c-1.802 0.778-3.432 0.915-4.89 0.41-1.464-0.502-2.605-1.698-3.421-3.59v0c-0.839-1.943-0.921-3.631-0.246-5.064 0.669-1.43 1.914-2.538 3.735-3.323v0c1.757-0.758 3.37-0.891 4.837-0.399 1.465 0.486 2.596 1.652 3.394 3.499v0c0.828 1.918 0.93 3.608 0.306 5.072-0.624 1.464-1.862 2.595-3.715 3.395zM89.143 23.936v0c0.782-0.338 1.27-0.837 1.464-1.499 0.187-0.659 0.025-1.582-0.487-2.768v0c-0.487-1.129-1.031-1.834-1.632-2.115-0.603-0.287-1.299-0.261-2.088 0.08v0c-0.763 0.329-1.259 0.837-1.489 1.521-0.22 0.688-0.091 1.587 0.389 2.697v0c0.504 1.167 1.065 1.895 1.684 2.183 0.619 0.288 1.339 0.255 2.159-0.099z" fill="#ffffff" data-fill-palette-color="primary"></path><path d="M108.176 12.331v0l1.938 6.529c0.066 0.221 0.064 0.389-0.003 0.504-0.068 0.115-0.212 0.205-0.434 0.27v0l-2.3 0.683c-0.228 0.068-0.401 0.072-0.521 0.013-0.12-0.059-0.212-0.199-0.278-0.421v0l-1.764-5.946c-0.24-0.81-0.587-1.352-1.04-1.626-0.453-0.274-0.974-0.323-1.563-0.148v0c-0.589 0.175-1.004 0.436-1.243 0.784-0.239 0.348-0.388 0.742-0.447 1.182v0l2.06 6.941c0.066 0.221 0.064 0.389-0.004 0.504-0.068 0.115-0.212 0.205-0.433 0.27v0l-2.31 0.686c-0.221 0.066-0.391 0.069-0.511 0.01-0.12-0.059-0.212-0.199-0.278-0.421v0l-2.781-9.371c-0.052-0.174-0.056-0.322-0.012-0.445v0c0.099-0.255 0.227-0.523 0.385-0.803 0.149-0.285 0.348-0.595 0.598-0.931v0c0.079-0.103 0.161-0.168 0.248-0.194v0c0.08-0.024 0.185-0.015 0.314 0.027v0c0.386 0.148 0.724 0.303 1.012 0.465 0.287 0.155 0.553 0.328 0.799 0.517v0l0.06-0.018c0.078-0.205 0.208-0.452 0.392-0.74 0.189-0.296 0.488-0.6 0.899-0.911 0.404-0.309 0.964-0.57 1.681-0.783v0c0.703-0.209 1.412-0.262 2.127-0.161 0.72 0.092 1.38 0.414 1.98 0.964 0.607 0.548 1.084 1.405 1.429 2.57z" fill="#ffffff" data-fill-palette-color="primary"></path><path d="M116.527 17.267v0c-0.536-0.592-1.079-1.292-1.629-2.101-0.556-0.801-1.073-1.622-1.551-2.463-0.477-0.835-0.876-1.608-1.197-2.32-0.321-0.705-0.514-1.257-0.58-1.657v0c-0.025-0.152-0.004-0.286 0.061-0.403v0c0.28-0.492 0.709-1.029 1.286-1.612v0c0.098-0.094 0.195-0.149 0.292-0.165v0c0.097-0.016 0.206 0.005 0.329 0.063v0c0.393 0.197 0.729 0.387 1.006 0.568 0.277 0.181 0.52 0.364 0.727 0.549v0c0.1 0.09 0.164 0.224 0.194 0.404v0l-0.009-0.052c0.081 0.496 0.278 1.136 0.591 1.921 0.311 0.777 0.699 1.588 1.163 2.431 0.458 0.852 0.959 1.619 1.503 2.302v0l0.051-0.008c0.251-0.629 0.457-1.292 0.619-1.991 0.16-0.706 0.279-1.405 0.357-2.097 0.071-0.691 0.109-1.32 0.115-1.888 0.006-0.567-0.019-1.023-0.075-1.368v0l0.006 0.041c-0.029-0.179-0.015-0.327 0.045-0.442v0c0.144-0.243 0.319-0.495 0.524-0.755 0.198-0.259 0.445-0.544 0.741-0.854v0c0.098-0.094 0.192-0.148 0.281-0.163v0c0.11-0.018 0.216 0.003 0.319 0.065v0c0.386 0.199 0.715 0.389 0.985 0.571 0.277 0.181 0.516 0.365 0.717 0.551v0c0.1 0.09 0.163 0.217 0.19 0.383v0c0.054 0.416 0.039 1.016-0.044 1.802-0.085 0.778-0.226 1.644-0.424 2.596-0.205 0.954-0.45 1.896-0.737 2.828-0.293 0.933-0.608 1.752-0.945 2.459v0c-0.204 0.437-0.4 0.756-0.586 0.956-0.188 0.194-0.547 0.334-1.078 0.421v0l-1.22 0.2c-0.551 0.09-0.946 0.077-1.185-0.039-0.24-0.124-0.52-0.368-0.842-0.733zM111.577 8.767l-0.009-0.052 0.002 0.011c0.002 0.014 0.005 0.028 0.007 0.041zM123.585 6.757v0l0.006 0.041-0.003-0.021c-0.001-0.007-0.002-0.014-0.003-0.02z" fill="#ffffff" data-fill-palette-color="primary"></path><path d="M134.187 16.726v0c-1.311 0.068-2.463-0.086-3.455-0.461-0.991-0.368-1.778-0.985-2.362-1.851-0.583-0.865-0.911-2.006-0.984-3.422v0c-0.109-2.121 0.352-3.753 1.384-4.897 1.032-1.144 2.448-1.763 4.247-1.856v0c1.172-0.06 2.173 0.101 3.005 0.485 0.838 0.376 1.485 0.92 1.941 1.631 0.464 0.717 0.72 1.551 0.769 2.499v0c0.048 0.921-0.156 1.578-0.611 1.972-0.456 0.387-1.137 0.604-2.044 0.651v0l-5.002 0.259c0.104 0.799 0.429 1.394 0.974 1.785 0.552 0.391 1.278 0.564 2.177 0.517v0c0.712-0.037 1.278-0.174 1.7-0.413 0.422-0.232 0.713-0.414 0.873-0.548v0c0.141-0.119 0.305-0.18 0.495-0.183v0c0.146-0.008 0.361 0.013 0.643 0.061 0.275 0.042 0.552 0.132 0.832 0.272v0c0.201 0.095 0.306 0.229 0.315 0.403v0c0.005 0.105-0.008 0.252-0.04 0.443v0c-0.016 0.106-0.046 0.265-0.091 0.477-0.045 0.205-0.105 0.401-0.18 0.586v0c-0.045 0.086-0.114 0.17-0.207 0.252v0c-0.148 0.12-0.391 0.276-0.731 0.468-0.332 0.199-0.795 0.38-1.389 0.544-0.593 0.17-1.346 0.279-2.259 0.326zM130.931 9.351v0l3.799-0.196c0.398-0.021 0.587-0.212 0.568-0.575v0c-0.028-0.551-0.227-1.006-0.595-1.365-0.361-0.359-0.887-0.521-1.578-0.485v0c-0.753 0.039-1.296 0.308-1.626 0.808-0.331 0.5-0.52 1.104-0.568 1.813z" fill="#ffffff" data-fill-palette-color="primary"></path><path d="M154.562 9.631v0l-0.42 6.797c-0.014 0.23-0.073 0.387-0.177 0.472-0.103 0.085-0.27 0.12-0.499 0.106v0l-2.395-0.149c-0.237-0.015-0.402-0.07-0.494-0.167-0.092-0.097-0.131-0.26-0.116-0.49v0l0.383-6.191c0.052-0.844-0.087-1.472-0.419-1.884-0.331-0.412-0.804-0.638-1.418-0.675v0c-0.614-0.038-1.092 0.065-1.436 0.31-0.344 0.245-0.619 0.564-0.825 0.957v0l-0.447 7.226c-0.014 0.23-0.073 0.387-0.177 0.472-0.103 0.085-0.27 0.12-0.5 0.105v0l-2.405-0.148c-0.23-0.014-0.391-0.07-0.483-0.167-0.092-0.097-0.131-0.26-0.117-0.49v0l0.604-9.757c0.011-0.181 0.058-0.322 0.142-0.421v0c0.181-0.206 0.393-0.413 0.636-0.622 0.237-0.216 0.531-0.44 0.882-0.67v0c0.109-0.07 0.209-0.103 0.3-0.097v0c0.084 0.005 0.179 0.05 0.285 0.133v0c0.312 0.271 0.576 0.533 0.792 0.784 0.216 0.244 0.407 0.498 0.572 0.76v0l0.063 0.003c0.143-0.166 0.351-0.353 0.622-0.559 0.279-0.214 0.665-0.396 1.157-0.548 0.485-0.152 1.101-0.205 1.847-0.159v0c0.732 0.045 1.416 0.238 2.053 0.579 0.644 0.334 1.154 0.862 1.53 1.585 0.382 0.723 0.536 1.692 0.46 2.905z" fill="#ffffff" data-fill-palette-color="primary"></path><path d="M160.199 1.971v0c0.016-0.097 0.06-0.178 0.135-0.244 0.074-0.066 0.17-0.153 0.286-0.261v0c0.254-0.214 0.547-0.432 0.88-0.655 0.327-0.23 0.656-0.45 0.987-0.658v0c0.21-0.115 0.359-0.165 0.448-0.151v0c0.097 0.016 0.226 0.111 0.39 0.286v0c0.541 0.639 0.988 1.249 1.339 1.829v0c0.078 0.133 0.145 0.243 0.202 0.329 0.049 0.093 0.065 0.187 0.05 0.284v0c-0.017 0.103-0.062 0.188-0.137 0.254-0.081 0.065-0.184 0.154-0.308 0.269v0c-0.245 0.201-0.527 0.417-0.848 0.649-0.32 0.231-0.648 0.444-0.983 0.637v0c-0.118 0.073-0.21 0.118-0.277 0.136-0.067 0.018-0.127 0.022-0.182 0.013v0c-0.055-0.009-0.108-0.032-0.159-0.068-0.051-0.036-0.131-0.11-0.241-0.219v0c-0.271-0.291-0.519-0.597-0.744-0.916-0.225-0.319-0.424-0.62-0.597-0.902v0c-0.077-0.14-0.14-0.252-0.19-0.339-0.051-0.079-0.068-0.17-0.051-0.273zM163.646 7.121l-1.702 10.572c-0.037 0.228-0.11 0.378-0.221 0.453-0.111 0.074-0.28 0.093-0.508 0.056v0l-2.379-0.383c-0.228-0.037-0.382-0.108-0.465-0.213-0.082-0.105-0.105-0.272-0.068-0.499v0l1.702-10.572c0.037-0.228 0.11-0.378 0.222-0.453 0.111-0.074 0.28-0.093 0.507-0.056v0l2.38 0.383c0.228 0.037 0.382 0.108 0.464 0.213 0.082 0.105 0.105 0.272 0.068 0.499z" fill="#ffffff" data-fill-palette-color="primary"></path><path d="M171.575 20.936v0c-1.273-0.324-2.327-0.813-3.162-1.466-0.837-0.646-1.406-1.468-1.707-2.467-0.3-0.999-0.276-2.186 0.075-3.56v0c0.524-2.058 1.449-3.48 2.774-4.267 1.325-0.787 2.861-0.958 4.607-0.513v0c1.137 0.29 2.046 0.741 2.725 1.355 0.688 0.608 1.145 1.319 1.371 2.133 0.23 0.823 0.228 1.694-0.007 2.615v0c-0.228 0.893-0.617 1.461-1.169 1.702-0.55 0.235-1.265 0.24-2.145 0.016v0l-4.853-1.237c-0.137 0.794-0.004 1.459 0.4 1.994 0.411 0.537 1.053 0.917 1.926 1.14v0c0.69 0.176 1.272 0.212 1.745 0.109 0.471-0.096 0.804-0.184 0.998-0.265v0c0.17-0.072 0.345-0.081 0.526-0.028v0c0.142 0.036 0.341 0.119 0.596 0.249 0.25 0.121 0.488 0.29 0.714 0.507v0c0.164 0.15 0.224 0.309 0.181 0.478v0c-0.026 0.102-0.082 0.238-0.17 0.411v0c-0.046 0.096-0.122 0.239-0.228 0.429-0.104 0.182-0.219 0.351-0.345 0.506v0c-0.068 0.069-0.159 0.129-0.273 0.18v0c-0.176 0.07-0.456 0.147-0.837 0.23-0.377 0.091-0.872 0.127-1.487 0.107-0.617-0.013-1.368-0.132-2.255-0.358zM170.653 12.927v0l3.686 0.939c0.386 0.098 0.624-0.029 0.713-0.38v0c0.136-0.535 0.082-1.028-0.163-1.48-0.239-0.45-0.693-0.76-1.363-0.931v0c-0.731-0.186-1.329-0.09-1.793 0.289-0.464 0.379-0.824 0.9-1.08 1.563z" fill="#ffffff" data-fill-palette-color="primary"></path><path d="M193.137 20.206v0l-2.419 6.367c-0.082 0.215-0.185 0.348-0.309 0.398-0.124 0.05-0.293 0.034-0.508-0.048v0l-2.243-0.852c-0.222-0.084-0.363-0.186-0.422-0.306-0.059-0.12-0.048-0.287 0.034-0.503v0l2.204-5.798c0.3-0.79 0.353-1.431 0.159-1.923-0.194-0.492-0.578-0.847-1.153-1.066v0c-0.575-0.218-1.062-0.262-1.464-0.13-0.401 0.131-0.759 0.354-1.072 0.668v0l-2.572 6.768c-0.082 0.215-0.185 0.348-0.308 0.398-0.124 0.05-0.293 0.034-0.509-0.047v0l-2.253-0.856c-0.215-0.082-0.353-0.183-0.411-0.302-0.059-0.12-0.048-0.287 0.034-0.503v0l3.472-9.138c0.065-0.17 0.151-0.29 0.261-0.361v0c0.234-0.143 0.498-0.278 0.792-0.405 0.291-0.136 0.638-0.262 1.041-0.378v0c0.125-0.035 0.23-0.036 0.315-0.003v0c0.078 0.03 0.156 0.1 0.233 0.212v0c0.218 0.352 0.392 0.679 0.523 0.983 0.134 0.297 0.241 0.596 0.321 0.896v0l0.059 0.022c0.186-0.116 0.44-0.233 0.761-0.35 0.33-0.121 0.753-0.181 1.267-0.179 0.509-0.001 1.112 0.131 1.811 0.396v0c0.686 0.261 1.282 0.648 1.789 1.162 0.516 0.51 0.846 1.166 0.99 1.968 0.15 0.804 0.009 1.775-0.423 2.91z" fill="#ffffff" data-fill-palette-color="primary"></path><path d="M205.033 20.904v0c0.817 0.428 1.375 0.807 1.675 1.138 0.306 0.334 0.486 0.562 0.54 0.685v0c0.103 0.18 0.155 0.365 0.158 0.556v0c0.011 0.1-0.002 0.259-0.037 0.477-0.039 0.224-0.102 0.451-0.191 0.681v0c-0.054 0.193-0.115 0.318-0.185 0.376-0.06 0.055-0.189 0.098-0.387 0.128v0c-0.225 0.024-0.46 0.027-0.703 0.01-0.243-0.017-0.435-0.043-0.575-0.076v0c-0.115-0.021-0.196-0.055-0.242-0.103-0.049-0.042-0.105-0.122-0.169-0.243v0c-0.072-0.133-0.183-0.297-0.333-0.493-0.149-0.197-0.4-0.387-0.753-0.572v0c-0.445-0.233-0.926-0.347-1.441-0.342-0.519 0.012-1.02 0.171-1.504 0.477-0.487 0.313-0.903 0.797-1.247 1.453v0c-0.522 0.996-0.666 1.903-0.431 2.719 0.238 0.811 0.796 1.446 1.674 1.907v0c0.445 0.233 0.841 0.382 1.187 0.444 0.346 0.063 0.629 0.093 0.851 0.092v0c0.175-0.003 0.29 0.034 0.345 0.109 0.049 0.073 0.07 0.167 0.065 0.283v0l-0.144 2.101c-0.02 0.218-0.126 0.324-0.32 0.317v0c-0.322-0.003-0.82-0.075-1.495-0.216-0.675-0.141-1.443-0.437-2.303-0.887v0c-1.726-0.905-2.864-2.089-3.415-3.552-0.553-1.457-0.35-3.101 0.61-4.933v0c0.616-1.176 1.38-2.053 2.291-2.632 0.914-0.586 1.924-0.872 3.029-0.861 1.106 0.012 2.256 0.33 3.45 0.957z" fill="#ffffff" data-fill-palette-color="primary"></path><path d="M209.871 38.583v0c-1.093-0.728-1.926-1.538-2.498-2.431-0.576-0.887-0.84-1.852-0.792-2.893 0.048-1.042 0.465-2.154 1.25-3.334v0c1.177-1.768 2.521-2.803 4.031-3.107 1.511-0.303 3.016 0.045 4.517 1.044v0c0.977 0.65 1.684 1.377 2.123 2.181 0.448 0.802 0.643 1.624 0.585 2.466-0.056 0.852-0.347 1.674-0.873 2.465v0c-0.511 0.768-1.067 1.174-1.667 1.219-0.597 0.039-1.273-0.193-2.029-0.696v0l-4.169-2.776c-0.393 0.703-0.487 1.375-0.283 2.014 0.21 0.643 0.69 1.214 1.44 1.714v0c0.593 0.395 1.13 0.622 1.61 0.682 0.477 0.066 0.82 0.092 1.029 0.081v0c0.184-0.012 0.353 0.038 0.505 0.147v0c0.122 0.081 0.282 0.226 0.48 0.433 0.196 0.197 0.364 0.436 0.506 0.715v0c0.105 0.196 0.109 0.366 0.012 0.511v0c-0.058 0.087-0.157 0.198-0.296 0.332v0c-0.075 0.076-0.195 0.185-0.357 0.328-0.159 0.138-0.323 0.259-0.494 0.364v0c-0.087 0.043-0.193 0.069-0.317 0.078v0c-0.19 0.008-0.479-0.012-0.866-0.06-0.386-0.038-0.865-0.169-1.438-0.391-0.577-0.217-1.247-0.578-2.009-1.086zM211.656 30.721v0l3.166 2.108c0.331 0.221 0.598 0.18 0.799-0.123v0c0.306-0.459 0.418-0.943 0.336-1.45-0.076-0.504-0.402-0.947-0.977-1.33v0c-0.628-0.418-1.224-0.525-1.788-0.322-0.564 0.204-1.076 0.576-1.536 1.117z" fill="#ffffff" data-fill-palette-color="primary"></path><path d="M234.013 50.054v0c0.014 0.677 0.033 1.274 0.058 1.793v0c0.874-0.152 1.625-0.433 2.253-0.843 0.628-0.419 1.184-0.871 1.668-1.354v0l0.052-0.052c0.133-0.133 0.262-0.207 0.386-0.222v0c0.504-0.079 1.163-0.07 1.978 0.024v0c0.133 0.015 0.23 0.052 0.289 0.112v0c0.069 0.069 0.106 0.166 0.11 0.289v0c0.093 0.785 0.1 1.445 0.021 1.978v0c-0.015 0.123-0.089 0.252-0.223 0.385v0l-0.007 0.007c-0.727 0.725-1.634 1.344-2.721 1.857-1.087 0.513-2.275 0.835-3.565 0.967v0c0.079 0.484 0.179 0.842 0.303 1.075 0.118 0.227 0.269 0.432 0.451 0.615v0c0.188 0.188 0.358 0.339 0.511 0.453 0.158 0.109 0.294 0.2 0.407 0.274v0c0.232 0.134 0.289 0.304 0.17 0.512v0l-1.016 1.799c-0.119 0.217-0.279 0.289-0.482 0.214v0c-0.202-0.064-0.476-0.196-0.822-0.393-0.35-0.203-0.726-0.504-1.125-0.905v0c-0.266-0.267-0.503-0.549-0.711-0.845-0.217-0.297-0.402-0.67-0.554-1.12-0.153-0.45-0.281-1.042-0.384-1.778v0c-0.948-0.169-1.795-0.473-2.54-0.914-0.745-0.44-1.478-1.021-2.199-1.743v0c-0.809-0.811-1.404-1.678-1.783-2.602-0.374-0.929-0.482-1.853-0.323-2.771 0.154-0.923 0.627-1.78 1.417-2.57v0c0.702-0.701 1.503-1.12 2.402-1.257 0.899-0.137 1.867-0.082 2.904 0.166v0c0.129-0.77 0.322-1.407 0.58-1.911 0.262-0.499 0.608-0.963 1.038-1.392v0c0.573-0.572 1.231-0.927 1.972-1.065 0.741-0.138 1.506-0.063 2.296 0.225 0.79 0.287 1.54 0.787 2.251 1.498v0c1.11 1.112 1.699 2.192 1.768 3.24 0.068 1.047-0.313 1.985-1.144 2.814v0c-0.499 0.498-1.016 0.826-1.549 0.984-0.539 0.162-1.144 0.194-1.815 0.094-0.672-0.099-1.457-0.303-2.356-0.609v0c-0.005 0.42-0.003 0.877 0.006 1.37 0.004 0.489 0.014 1.022 0.028 1.601zM234.991 42.312v0c-0.425 0.424-0.71 1.088-0.854 1.993v0c0.918 0.307 1.587 0.458 2.008 0.453 0.42-0.005 0.771-0.147 1.052-0.428v0c0.272-0.271 0.413-0.57 0.423-0.896 0.015-0.331-0.148-0.667-0.488-1.008v0c-0.41-0.41-0.802-0.601-1.177-0.572-0.37 0.034-0.692 0.187-0.964 0.458zM228.378 46.84v0c-0.519 0.518-0.764 1.113-0.735 1.785 0.039 0.672 0.33 1.28 0.873 1.823v0c0.331 0.331 0.676 0.603 1.036 0.816 0.365 0.208 0.785 0.366 1.259 0.476v0c-0.039-0.603-0.063-1.269-0.072-2.001v0c-0.024-0.706-0.036-1.356-0.035-1.948-0.004-0.598-0.001-1.148 0.009-1.652v0c-0.538-0.065-0.985-0.043-1.341 0.065-0.356 0.118-0.687 0.33-0.994 0.636z" fill="#ffffff" data-fill-palette-color="primary"></path><path d="M244.749 74.276l-1.955-3.004c-0.438-0.673-0.685-1.238-0.739-1.693-0.059-0.462 0.067-0.877 0.377-1.246 0.301-0.371 0.77-0.764 1.408-1.179v0l8.782-5.714c0.65-0.423 1.205-0.697 1.665-0.822 0.457-0.131 0.884-0.075 1.283 0.166 0.389 0.239 0.802 0.695 1.24 1.368v0l1.955 3.003c0.911 1.399 1.501 2.761 1.771 4.085 0.266 1.318 0.094 2.597-0.517 3.837-0.614 1.233-1.788 2.414-3.521 3.541v0c-1.733 1.128-3.317 1.742-4.751 1.842-1.439 0.094-2.736-0.228-3.892-0.968-1.16-0.745-2.195-1.817-3.106-3.216zM255.723 66.109l-0.28-0.43c-0.278-0.427-0.559-0.661-0.844-0.701-0.281-0.034-0.643 0.094-1.088 0.383v0l-6.446 4.195c-0.439 0.286-0.703 0.566-0.791 0.84-0.084 0.28 0.012 0.634 0.29 1.061v0l0.298 0.456c0.907 1.393 1.949 2.253 3.127 2.578 1.18 0.315 2.616-0.078 4.308-1.179v0c1.124-0.731 1.884-1.472 2.28-2.221 0.398-0.759 0.506-1.546 0.326-2.362-0.185-0.822-0.578-1.695-1.18-2.62z" fill="#ffffff" data-fill-palette-color="primary"></path><path d="M252.992 89.803v0c-0.563-1.187-0.859-2.31-0.891-3.37-0.037-1.057 0.233-2.02 0.81-2.889 0.577-0.869 1.507-1.607 2.788-2.215v0c1.919-0.91 3.604-1.106 5.056-0.588 1.451 0.518 2.563 1.591 3.335 3.219v0c0.503 1.06 0.735 2.048 0.697 2.963-0.029 0.918-0.284 1.723-0.767 2.416-0.486 0.702-1.159 1.257-2.017 1.664v0c-0.833 0.395-1.519 0.457-2.057 0.187-0.532-0.274-0.992-0.821-1.381-1.641v0l-2.146-4.526c-0.699 0.401-1.125 0.928-1.28 1.581-0.151 0.659-0.034 1.396 0.353 2.21v0c0.305 0.644 0.648 1.115 1.029 1.414 0.375 0.302 0.655 0.501 0.841 0.598v0c0.164 0.085 0.283 0.214 0.357 0.387v0c0.063 0.133 0.126 0.339 0.189 0.618 0.066 0.27 0.088 0.561 0.066 0.873v0c-0.011 0.222-0.095 0.37-0.253 0.445v0c-0.095 0.045-0.236 0.089-0.424 0.132v0c-0.104 0.026-0.262 0.059-0.476 0.098-0.207 0.036-0.41 0.055-0.61 0.057v0c-0.097-0.008-0.201-0.04-0.312-0.095v0c-0.167-0.091-0.404-0.257-0.712-0.498-0.311-0.231-0.655-0.59-1.032-1.076-0.384-0.483-0.771-1.138-1.163-1.964zM258.569 83.981v0l1.629 3.436c0.171 0.36 0.42 0.462 0.748 0.307v0c0.499-0.236 0.843-0.593 1.035-1.071 0.194-0.471 0.143-1.019-0.153-1.643v0c-0.323-0.682-0.779-1.08-1.367-1.196-0.588-0.115-1.219-0.06-1.892 0.167z" fill="#ffffff" data-fill-palette-color="primary"></path><path d="M258.858 100.972l-1.895-1.899c-0.122-0.126-0.195-0.222-0.219-0.287v0c-0.024-0.065-0.027-0.143-0.008-0.232v0c0.054-0.214 0.27-0.515 0.648-0.901 0.371-0.384 1.031-0.754 1.98-1.108v0l12.653-4.723c0.177-0.066 0.324-0.08 0.442-0.042v0c0.514 0.159 1.113 0.446 1.798 0.861v0c0.118 0.075 0.191 0.152 0.22 0.231v0c0.037 0.098 0.032 0.204-0.015 0.319v0c-0.118 0.402-0.245 0.751-0.38 1.048-0.131 0.288-0.269 0.548-0.414 0.78v0c-0.065 0.106-0.185 0.192-0.362 0.259v0l-11.985 4.473c-0.484 0.181-0.879 0.373-1.183 0.576-0.311 0.206-0.547 0.402-0.709 0.588v0c-0.196 0.215-0.386 0.234-0.571 0.057z" fill="#ffffff" data-fill-palette-color="primary"></path><path d="M274.307 100.142v0c0.094-0.028 0.186-0.023 0.278 0.015 0.092 0.038 0.212 0.086 0.36 0.144v0c0.303 0.135 0.627 0.305 0.972 0.507 0.35 0.194 0.69 0.395 1.022 0.602v0c0.195 0.139 0.305 0.251 0.331 0.339v0c0.028 0.094-0.001 0.252-0.087 0.474v0c-0.34 0.765-0.694 1.433-1.064 2.003v0c-0.086 0.128-0.155 0.236-0.209 0.325-0.062 0.084-0.14 0.14-0.234 0.168v0c-0.1 0.03-0.196 0.026-0.288-0.012-0.094-0.045-0.219-0.099-0.376-0.161v0c-0.288-0.133-0.605-0.293-0.953-0.481-0.348-0.188-0.682-0.39-1.002-0.608v0c-0.117-0.074-0.198-0.138-0.243-0.189-0.045-0.052-0.075-0.105-0.091-0.159v0c-0.016-0.054-0.019-0.111-0.008-0.173 0.011-0.062 0.042-0.166 0.093-0.312v0c0.144-0.371 0.311-0.727 0.5-1.068 0.19-0.341 0.374-0.651 0.553-0.931v0c0.092-0.13 0.166-0.236 0.222-0.318 0.049-0.08 0.124-0.135 0.224-0.165zM271.17 105.487l-10.259 3.069c-0.221 0.066-0.389 0.065-0.503-0.003-0.115-0.068-0.206-0.212-0.272-0.433v0l-0.691-2.308c-0.066-0.221-0.07-0.391-0.01-0.511 0.059-0.12 0.199-0.213 0.42-0.279v0l10.259-3.068c0.221-0.066 0.389-0.065 0.503 0.002 0.115 0.068 0.206 0.212 0.272 0.433v0l0.691 2.309c0.066 0.221 0.07 0.391 0.01 0.51-0.059 0.12-0.199 0.213-0.42 0.279z" fill="#ffffff" data-fill-palette-color="primary"></path><path d="M5.017 142.822c0-1.16 0.94-2.101 2.101-2.1 1.16 0 2.101 0.94 2.101 2.1 0 1.16-0.94 2.101-2.101 2.101-1.16 0-2.101-0.94-2.101-2.101z" fill="#ffffff" data-fill-palette-color="primary"></path><path d="M268.792 142.822c0-1.16 0.94-2.101 2.101-2.1 1.16 0 2.101 0.94 2.101 2.1 0 1.16-0.94 2.101-2.101 2.101-1.16 0-2.101-0.94-2.101-2.101z" fill="#ffffff" data-fill-palette-color="primary"></path></g><g id="text-1"><path d="M20.212 201.033l-3.237 1.513c-0.146 0.068-0.257 0.085-0.334 0.053-0.087-0.037-0.162-0.125-0.227-0.264v0l-0.71-1.519c-0.065-0.139-0.082-0.251-0.052-0.334 0.021-0.087 0.104-0.164 0.25-0.233v0l3.198-1.495 0.981-2.182c0.236-0.519 0.455-0.965 0.659-1.337 0.21-0.376 0.453-0.697 0.728-0.965 0.282-0.271 0.648-0.511 1.098-0.721v0l0.626-0.293c0.139-0.065 0.254-0.092 0.344-0.08v0c0.411 0.07 0.88 0.217 1.409 0.44v0c0.089 0.043 0.148 0.093 0.174 0.15v0c0.027 0.057 0.025 0.127-0.005 0.211v0c-0.086 0.295-0.174 0.552-0.265 0.771-0.099 0.216-0.2 0.413-0.301 0.592v0c-0.055 0.08-0.149 0.151-0.282 0.213v0l-0.617 0.289c-0.31 0.145-0.609 0.396-0.897 0.754-0.291 0.352-0.561 0.845-0.812 1.478v0l-0.398 1.031 1.037 0.336c0.592 0.194 1.12 0.301 1.585 0.323 0.468 0.028 0.873-0.038 1.215-0.197v0l0.626-0.293c0.139-0.065 0.255-0.089 0.349-0.071v0c0.398 0.061 0.862 0.195 1.391 0.403v0c0.089 0.043 0.146 0.09 0.169 0.14v0c0.027 0.057 0.025 0.127-0.005 0.211v0c-0.089 0.288-0.18 0.539-0.273 0.752-0.099 0.216-0.201 0.41-0.306 0.583v0c-0.055 0.08-0.149 0.151-0.282 0.212v0l-0.627 0.293c-0.519 0.243-1.069 0.361-1.65 0.355-0.587-0.003-1.309-0.136-2.164-0.399v0z" fill="#ffffff" data-fill-palette-color="primary"></path><path d="M21.236 211.815v0c-0.541-0.946-0.83-1.871-0.866-2.777-0.035-0.905 0.201-1.757 0.71-2.555 0.511-0.808 1.313-1.524 2.404-2.149v0c1.74-0.996 3.28-1.314 4.62-0.955 1.335 0.363 2.436 1.302 3.304 2.817v0c0.812 1.418 1.039 2.778 0.68 4.078-0.365 1.303-1.368 2.425-3.011 3.365v0c-1.164 0.666-2.231 1.024-3.201 1.073-0.98 0.046-1.858-0.18-2.633-0.678-0.779-0.504-1.448-1.243-2.007-2.219zM23.093 210.8v0c0.469 0.818 1.11 1.256 1.923 1.313 0.808 0.061 1.678-0.176 2.612-0.71v0c1.085-0.621 1.795-1.273 2.128-1.955 0.33-0.688 0.26-1.444-0.212-2.269v0c-0.93-1.625-2.468-1.823-4.614-0.594v0c-0.958 0.548-1.62 1.185-1.986 1.909-0.362 0.731-0.313 1.499 0.149 2.306z" fill="#ffffff" data-fill-palette-color="primary"></path><path d="M27.877 222.217v0c-0.558-0.803-0.928-1.563-1.109-2.278-0.188-0.711-0.121-1.4 0.199-2.064 0.321-0.665 0.957-1.328 1.909-1.99v0l4.717-3.274c0.126-0.088 0.235-0.133 0.325-0.137v0c0.417 0 0.902 0.062 1.457 0.187v0c0.099 0.033 0.165 0.072 0.197 0.119v0c0.036 0.052 0.048 0.124 0.036 0.217v0c-0.039 0.299-0.084 0.564-0.136 0.796-0.062 0.23-0.127 0.441-0.197 0.634v0c-0.041 0.088-0.122 0.174-0.242 0.258v0l-4.389 3.047c-0.614 0.426-1.036 0.817-1.266 1.172-0.23 0.355-0.312 0.702-0.247 1.04 0.065 0.338 0.226 0.693 0.485 1.066v0c0.271 0.39 0.553 0.674 0.847 0.853 0.294 0.179 0.646 0.219 1.055 0.123 0.409-0.097 0.92-0.358 1.534-0.785v0l4.389-3.048c0.126-0.088 0.237-0.13 0.332-0.128v0c0.417 0 0.902 0.062 1.457 0.187v0c0.095 0.027 0.161 0.067 0.197 0.119v0c0.036 0.052 0.046 0.121 0.03 0.208v0c-0.035 0.305-0.078 0.573-0.13 0.805-0.062 0.23-0.127 0.441-0.198 0.634v0c-0.041 0.088-0.122 0.174-0.242 0.258v0l-4.716 3.275c-0.952 0.661-1.806 1.012-2.561 1.051-0.755 0.039-1.435-0.156-2.04-0.586-0.607-0.421-1.171-1.007-1.693-1.759z" fill="#ffffff" data-fill-palette-color="primary"></path><path d="M40.459 224.695l-6.075 5.05c-0.124 0.103-0.227 0.148-0.31 0.135-0.089-0.008-0.184-0.074-0.287-0.197v0l-1.065-1.281c-0.103-0.124-0.15-0.23-0.142-0.318 0.003-0.084 0.066-0.177 0.19-0.28v0l6.703-5.573c0.403-0.335 0.754-0.563 1.053-0.685 0.289-0.122 0.574-0.118 0.854 0.012 0.286 0.126 0.601 0.395 0.945 0.809v0l1.333 1.603c1.742 2.095 1.807 3.812 0.195 5.152v0c-0.494 0.411-0.966 0.662-1.416 0.755-0.445 0.098-0.86 0.097-1.242-0.003-0.377-0.104-0.71-0.236-0.998-0.397v0l-0.032 0.027c0.051 0.411 0.035 0.861-0.05 1.349-0.084 0.478-0.212 0.958-0.385 1.438-0.172 0.47-0.364 0.911-0.576 1.323-0.216 0.407-0.431 0.744-0.644 1.012v0c-0.106 0.124-0.197 0.2-0.274 0.228-0.077 0.028-0.165-0.018-0.262-0.136v0l-1.153-1.385c-0.089-0.107-0.144-0.217-0.163-0.328-0.024-0.116 0.018-0.274 0.125-0.472v0c0.514-0.945 0.847-1.817 1-2.616 0.153-0.799 0.223-1.507 0.211-2.124v0c-0.009-0.393 0.028-0.622 0.108-0.689v0c0.064-0.054 0.184-0.09 0.359-0.108v0c0.11-0.01 0.254-0.006 0.431 0.01 0.173 0.011 0.31 0.029 0.412 0.053v0c0.106 0.03 0.183 0.061 0.229 0.095 0.046 0.034 0.105 0.094 0.177 0.18v0c0.25 0.301 0.56 0.466 0.929 0.495 0.369 0.029 0.777-0.142 1.223-0.513v0c0.419-0.348 0.636-0.71 0.65-1.086 0.019-0.37-0.125-0.741-0.433-1.111v0l-0.295-0.354c-0.223-0.269-0.432-0.404-0.624-0.408-0.193-0.003-0.427 0.11-0.701 0.338z" fill="#ffffff" data-fill-palette-color="primary"></path><path d="M52.497 236.252l-6.042 6.342c-0.111 0.116-0.208 0.173-0.292 0.17-0.089 0.002-0.191-0.052-0.308-0.163v0l-1.206-1.15c-0.111-0.106-0.17-0.206-0.178-0.299-0.007-0.084 0.045-0.184 0.156-0.3v0l6.042-6.342-1.691-1.612c-0.091-0.087-0.145-0.167-0.162-0.24v0c-0.033-0.157-0.057-0.335-0.072-0.532-0.015-0.197-0.02-0.419-0.016-0.667v0c0.013-0.084 0.034-0.142 0.063-0.172v0c0.029-0.03 0.083-0.051 0.161-0.063v0c0.247-0.016 0.466-0.019 0.659-0.008 0.198 0.005 0.378 0.018 0.542 0.038v0c0.079 0.018 0.162 0.068 0.248 0.15v0l5.219 4.973c0.091 0.087 0.145 0.167 0.162 0.24v0c0.029 0.162 0.05 0.342 0.065 0.54 0.019 0.192 0.025 0.409 0.015 0.652v0c-0.008 0.089-0.026 0.149-0.055 0.179v0c-0.034 0.035-0.09 0.054-0.169 0.056v0c-0.242 0.021-0.461 0.028-0.659 0.023-0.198-0.005-0.376-0.021-0.534-0.046v0c-0.085-0.023-0.167-0.073-0.249-0.15v0z" fill="#ffffff" data-fill-palette-color="primary"></path><path d="M57.197 241.562l-5.031 6.091c-0.102 0.124-0.196 0.187-0.28 0.19-0.088 0.008-0.195-0.039-0.318-0.141v0l-1.285-1.061c-0.124-0.102-0.19-0.198-0.198-0.286-0.013-0.083 0.032-0.187 0.134-0.31v0l5.552-6.721c0.334-0.404 0.636-0.693 0.907-0.868 0.261-0.174 0.542-0.223 0.842-0.147 0.304 0.07 0.664 0.277 1.079 0.619v0l1.607 1.328c2.1 1.735 2.483 3.41 1.149 5.026v0c-0.409 0.495-0.826 0.83-1.252 1.005-0.42 0.179-0.827 0.255-1.221 0.228-0.39-0.032-0.741-0.101-1.054-0.205v0l-0.027 0.032c0.127 0.395 0.194 0.84 0.202 1.336 0.007 0.486-0.031 0.98-0.112 1.484-0.082 0.494-0.189 0.963-0.32 1.407-0.137 0.44-0.285 0.811-0.444 1.114v0c-0.081 0.142-0.156 0.233-0.227 0.275-0.07 0.041-0.165 0.013-0.284-0.085v0l-1.389-1.148c-0.108-0.089-0.181-0.186-0.221-0.291-0.045-0.11-0.033-0.272 0.035-0.487v0c0.329-1.024 0.495-1.942 0.497-2.757 0.002-0.814-0.061-1.522-0.188-2.125v0c-0.081-0.384-0.088-0.617-0.021-0.698v0c0.053-0.065 0.164-0.122 0.333-0.173v0c0.106-0.03 0.248-0.053 0.425-0.07 0.172-0.021 0.31-0.029 0.414-0.025v0c0.11 0.009 0.191 0.026 0.243 0.052 0.052 0.025 0.121 0.073 0.207 0.144v0c0.302 0.249 0.636 0.354 1.005 0.313 0.368-0.04 0.737-0.284 1.107-0.73v0c0.347-0.42 0.493-0.816 0.437-1.188-0.05-0.367-0.261-0.705-0.632-1.011v0l-0.355-0.294c-0.269-0.222-0.499-0.317-0.69-0.284-0.19 0.033-0.399 0.187-0.626 0.461z" fill="#ffffff" data-fill-palette-color="primary"></path><path d="M61.997 255.859v0c-0.802-0.56-1.412-1.144-1.831-1.752-0.423-0.602-0.599-1.271-0.529-2.005 0.07-0.735 0.437-1.578 1.101-2.528v0l3.288-4.707c0.088-0.126 0.174-0.206 0.258-0.242v0c0.391-0.145 0.868-0.254 1.431-0.329v0c0.105-0.004 0.18 0.011 0.226 0.043v0c0.052 0.036 0.088 0.1 0.109 0.191v0c0.067 0.294 0.117 0.559 0.149 0.794 0.022 0.237 0.034 0.458 0.035 0.663v0c-0.008 0.097-0.054 0.205-0.138 0.326v0l-3.06 4.38c-0.428 0.613-0.688 1.125-0.78 1.539-0.092 0.413-0.05 0.766 0.128 1.06 0.178 0.295 0.453 0.572 0.825 0.832v0c0.389 0.272 0.753 0.441 1.09 0.506 0.338 0.065 0.682-0.018 1.032-0.251 0.35-0.233 0.739-0.655 1.167-1.268v0l3.059-4.38c0.088-0.126 0.177-0.204 0.267-0.236v0c0.391-0.145 0.868-0.254 1.432-0.329v0c0.099-0.008 0.174 0.007 0.225 0.042v0c0.052 0.036 0.085 0.098 0.101 0.186v0c0.073 0.298 0.125 0.565 0.157 0.8 0.022 0.237 0.034 0.458 0.035 0.663v0c-0.008 0.097-0.054 0.205-0.138 0.326v0l-3.288 4.707c-0.664 0.951-1.343 1.575-2.037 1.874-0.694 0.299-1.4 0.351-2.117 0.157-0.715-0.184-1.447-0.538-2.197-1.062z" fill="#ffffff" data-fill-palette-color="primary"></path><path d="M70.825 261.453v0c-0.573-0.334-1.02-0.663-1.34-0.987-0.314-0.321-0.541-0.626-0.679-0.916-0.138-0.291-0.223-0.546-0.256-0.768v0c-0.001-0.081-0.004-0.16-0.008-0.235 0.001-0.072 0.015-0.145 0.042-0.218v0c0.035-0.101 0.087-0.232 0.156-0.394 0.066-0.155 0.162-0.326 0.287-0.512v0c0.055-0.081 0.104-0.13 0.145-0.146v0c0.057-0.015 0.127-0.011 0.21 0.013v0c0.144 0.044 0.329 0.115 0.555 0.214 0.225 0.099 0.383 0.175 0.474 0.228v0c0.091 0.053 0.155 0.115 0.194 0.186 0.039 0.071 0.074 0.172 0.103 0.302v0c0.034 0.149 0.121 0.361 0.26 0.637 0.139 0.275 0.438 0.546 0.896 0.813v0c0.441 0.257 0.828 0.361 1.164 0.314 0.332-0.057 0.595-0.252 0.788-0.584v0c0.102-0.175 0.144-0.373 0.127-0.593-0.015-0.211-0.118-0.477-0.31-0.799-0.186-0.319-0.49-0.714-0.911-1.185v0c-0.688-0.789-1.098-1.508-1.228-2.158-0.131-0.65 0.027-1.358 0.474-2.125v0c0.369-0.634 0.831-1.072 1.385-1.316 0.554-0.243 1.166-0.315 1.835-0.216 0.67 0.099 1.358 0.354 2.064 0.766v0c0.543 0.316 0.959 0.644 1.247 0.981 0.279 0.34 0.472 0.647 0.58 0.92 0.104 0.279 0.158 0.484 0.163 0.616v0c0.001 0.081-0.001 0.141-0.007 0.178-0.006 0.037-0.022 0.08-0.05 0.128v0c-0.063 0.149-0.146 0.307-0.251 0.473-0.108 0.172-0.237 0.359-0.388 0.562v0c-0.06 0.062-0.116 0.094-0.166 0.097v0c-0.044 0.007-0.1-0.009-0.166-0.048v0c-0.444-0.251-0.77-0.469-0.977-0.654v0c-0.083-0.08-0.132-0.141-0.148-0.183-0.016-0.042-0.037-0.103-0.064-0.183v0c-0.023-0.127-0.077-0.291-0.161-0.494-0.09-0.206-0.307-0.409-0.651-0.609v0c-0.477-0.278-0.876-0.369-1.198-0.274-0.32 0.105-0.557 0.29-0.712 0.555v0c-0.183 0.314-0.182 0.646 0.002 0.996 0.194 0.347 0.541 0.82 1.041 1.419v0c0.42 0.487 0.756 0.95 1.01 1.388 0.254 0.439 0.382 0.885 0.384 1.339 0.002 0.454-0.158 0.959-0.482 1.514v0c-0.404 0.694-0.895 1.176-1.473 1.446-0.587 0.272-1.22 0.36-1.899 0.264-0.679-0.097-1.366-0.347-2.061-0.752z" fill="#ffffff" data-fill-palette-color="primary"></path><path d="M84.969 258.27l-3.815 7.885c-0.07 0.145-0.145 0.228-0.226 0.251-0.084 0.029-0.198 0.009-0.343-0.061v0l-1.5-0.726c-0.138-0.067-0.225-0.144-0.26-0.231-0.032-0.078-0.013-0.189 0.056-0.333v0l3.815-7.885-2.103-1.018c-0.113-0.055-0.189-0.115-0.228-0.179v0c-0.08-0.14-0.157-0.301-0.231-0.485-0.074-0.183-0.147-0.393-0.219-0.629v0c-0.014-0.084-0.011-0.145 0.007-0.183v0c0.018-0.038 0.063-0.074 0.134-0.11v0c0.23-0.09 0.438-0.16 0.626-0.209 0.19-0.056 0.366-0.099 0.527-0.129v0c0.081-0.007 0.175 0.015 0.282 0.066v0l6.489 3.14c0.113 0.055 0.189 0.115 0.228 0.179v0c0.077 0.146 0.152 0.31 0.226 0.494 0.077 0.177 0.149 0.382 0.215 0.616v0c0.02 0.087 0.021 0.15 0.002 0.187v0c-0.021 0.044-0.069 0.079-0.144 0.105v0c-0.224 0.094-0.43 0.168-0.62 0.224-0.19 0.056-0.364 0.095-0.523 0.119v0c-0.087 0.004-0.181-0.018-0.282-0.066v0z" fill="#ffffff" data-fill-palette-color="primary"></path><path d="M91.052 270.893l-3.658-1.489c-0.498-0.203-0.852-0.418-1.061-0.647-0.206-0.235-0.293-0.512-0.261-0.831 0.025-0.322 0.134-0.718 0.327-1.19v0l2.655-6.521c0.198-0.485 0.4-0.852 0.606-1.1 0.197-0.244 0.45-0.375 0.76-0.392 0.311-0.024 0.716 0.065 1.214 0.269v0l3.416 1.391c0.116 0.047 0.196 0.102 0.238 0.165v0c0.086 0.141 0.172 0.3 0.258 0.478 0.088 0.172 0.173 0.372 0.253 0.601v0c0.025 0.086 0.03 0.148 0.014 0.187v0c-0.018 0.045-0.064 0.083-0.137 0.114v0c-0.217 0.108-0.419 0.195-0.604 0.262-0.186 0.068-0.357 0.118-0.515 0.153v0c-0.087 0.01-0.182-0.006-0.286-0.049v0l-2.028-0.826c-0.323-0.132-0.571-0.153-0.743-0.065-0.172 0.088-0.325 0.298-0.459 0.628v0l-0.573 1.407 2.61 1.063c0.116 0.047 0.196 0.102 0.239 0.165v0c0.089 0.134 0.176 0.29 0.261 0.469 0.086 0.178 0.169 0.382 0.249 0.61v0c0.025 0.086 0.03 0.148 0.015 0.187v0c-0.016 0.039-0.061 0.077-0.137 0.114v0c-0.217 0.108-0.419 0.195-0.605 0.263-0.183 0.061-0.355 0.112-0.514 0.152v0c-0.087 0.01-0.182-0.006-0.286-0.048v0l-2.61-1.063-0.597 1.465c-0.132 0.323-0.168 0.58-0.11 0.77 0.061 0.183 0.253 0.341 0.577 0.472v0l2.27 0.925c0.116 0.047 0.196 0.102 0.239 0.165v0c0.086 0.141 0.173 0.297 0.261 0.468 0.086 0.178 0.169 0.382 0.249 0.611v0c0.025 0.086 0.03 0.148 0.015 0.187v0c-0.018 0.045-0.064 0.083-0.137 0.114v0c-0.217 0.108-0.419 0.195-0.605 0.263-0.186 0.068-0.357 0.118-0.514 0.152v0c-0.087 0.01-0.182-0.006-0.286-0.048z" fill="#ffffff" data-fill-palette-color="primary"></path><path d="M98.212 273.27l-2.296-0.734c-0.512-0.164-0.881-0.351-1.107-0.562-0.224-0.218-0.332-0.487-0.324-0.808 0-0.323 0.078-0.727 0.233-1.213v0l2.144-6.706c0.16-0.499 0.333-0.88 0.519-1.143 0.178-0.258 0.42-0.408 0.727-0.45 0.309-0.048 0.719 0.01 1.231 0.174v0l2.296 0.734c1.071 0.342 1.958 0.802 2.661 1.378 0.696 0.575 1.149 1.313 1.359 2.217 0.203 0.901 0.093 2.013-0.329 3.337v0c-0.423 1.324-0.986 2.317-1.69 2.98-0.71 0.66-1.521 1.043-2.434 1.147-0.922 0.109-1.919-0.008-2.99-0.351zM100.457 264.352l-0.319-0.102c-0.333-0.106-0.581-0.109-0.746-0.007-0.164 0.101-0.301 0.322-0.409 0.661v0l-1.576 4.93c-0.106 0.333-0.122 0.588-0.047 0.766 0.073 0.185 0.276 0.33 0.609 0.437v0l0.339 0.108c1.065 0.34 1.972 0.345 2.724 0.013 0.754-0.338 1.337-1.153 1.749-2.444v0c0.274-0.858 0.355-1.569 0.242-2.134-0.115-0.557-0.396-1.01-0.842-1.358-0.437-0.352-1.012-0.642-1.724-0.87z" fill="#ffffff" data-fill-palette-color="primary"></path><path d="M115.963 277.661l-3.823-0.76c-0.528-0.105-0.915-0.25-1.163-0.434-0.247-0.191-0.385-0.447-0.414-0.766-0.036-0.321-0.004-0.731 0.095-1.231v0l1.538-7.738c0.03-0.151 0.076-0.259 0.139-0.325v0c0.3-0.289 0.692-0.582 1.179-0.877v0c0.094-0.045 0.169-0.063 0.224-0.052v0c0.062 0.012 0.121 0.056 0.177 0.132v0c0.18 0.242 0.331 0.465 0.455 0.667 0.115 0.208 0.215 0.406 0.298 0.594v0c0.032 0.092 0.033 0.21 0.005 0.353v0l-1.357 6.824c-0.068 0.343-0.055 0.598 0.04 0.766 0.093 0.175 0.311 0.297 0.654 0.365v0l2.356 0.457c0.123 0.025 0.212 0.063 0.265 0.117v0c0.118 0.123 0.233 0.26 0.345 0.411 0.118 0.159 0.242 0.344 0.371 0.554v0c0.034 0.078 0.047 0.138 0.039 0.179v0c-0.01 0.048-0.044 0.095-0.102 0.14v0c-0.2 0.145-0.385 0.269-0.555 0.37-0.163 0.103-0.322 0.185-0.476 0.247v0c-0.077 0.027-0.173 0.03-0.29 0.007z" fill="#ffffff" data-fill-palette-color="primary"></path><path d="M123.357 278.814v0c-1.082-0.13-1.996-0.452-2.744-0.964-0.747-0.512-1.289-1.211-1.626-2.096-0.343-0.893-0.439-1.963-0.289-3.211v0c0.24-1.99 0.904-3.416 1.993-4.277 1.088-0.854 2.499-1.176 4.233-0.967v0c1.623 0.196 2.848 0.825 3.677 1.889 0.828 1.071 1.129 2.546 0.902 4.425v0c-0.16 1.331-0.511 2.401-1.052 3.208-0.548 0.813-1.254 1.383-2.116 1.708-0.869 0.324-1.862 0.419-2.978 0.285zM123.652 276.717v0c0.936 0.113 1.67-0.14 2.202-0.758 0.531-0.611 0.861-1.451 0.989-2.519v0c0.15-1.241 0.05-2.2-0.297-2.875-0.355-0.676-1.004-1.071-1.947-1.184v0c-1.859-0.224-2.936 0.892-3.232 3.346v0c-0.132 1.096-0.017 2.007 0.347 2.733 0.37 0.727 1.016 1.146 1.938 1.257z" fill="#ffffff" data-fill-palette-color="primary"></path><path d="M135.913 277.602v0c0.384 0.013 0.685-0.015 0.904-0.085 0.219-0.076 0.39-0.169 0.513-0.276 0.123-0.115 0.231-0.226 0.326-0.335v0c0.087-0.102 0.16-0.176 0.217-0.223 0.051-0.054 0.129-0.09 0.234-0.108v0c0.085-0.025 0.218-0.038 0.4-0.039 0.189-0.001 0.374 0.002 0.555 0.008 0.188 0.006 0.317 0.018 0.387 0.034v0c0.112 0.004 0.188 0.027 0.228 0.071v0c0.041 0.036 0.063 0.114 0.066 0.233v0c0.015 0.168 0.019 0.368 0.011 0.598-0.008 0.23-0.018 0.429-0.031 0.596v0c-0.009 0.049-0.021 0.09-0.035 0.125-0.015 0.041-0.045 0.096-0.09 0.165v0c-0.052 0.082-0.157 0.201-0.316 0.356-0.152 0.156-0.377 0.312-0.676 0.47-0.299 0.158-0.681 0.288-1.145 0.391-0.472 0.11-1.043 0.154-1.714 0.131v0c-0.719-0.024-1.39-0.141-2.011-0.35-0.622-0.203-1.16-0.532-1.613-0.988-0.46-0.456-0.81-1.062-1.05-1.817-0.24-0.756-0.341-1.692-0.304-2.81v0c0.042-1.243 0.294-2.293 0.756-3.151 0.462-0.851 1.095-1.49 1.899-1.917 0.811-0.427 1.761-0.622 2.851-0.586v0c0.761 0.026 1.369 0.123 1.824 0.292 0.455 0.176 0.802 0.373 1.039 0.591 0.23 0.217 0.392 0.408 0.484 0.572v0c0.04 0.057 0.066 0.107 0.079 0.149 0.012 0.049 0.02 0.119 0.025 0.211v0c0.01 0.126 0.007 0.308-0.008 0.545-0.015 0.244-0.043 0.456-0.085 0.636v0c-0.025 0.111-0.059 0.187-0.102 0.227v0c-0.022 0.02-0.061 0.036-0.117 0.049-0.049 0.012-0.126 0.017-0.231 0.013v0c-0.168-0.006-0.356-0.019-0.564-0.04-0.209-0.021-0.366-0.04-0.47-0.058v0c-0.125-0.025-0.215-0.056-0.27-0.092-0.061-0.044-0.119-0.109-0.171-0.195v0c-0.086-0.136-0.242-0.298-0.466-0.487-0.225-0.182-0.602-0.282-1.133-0.301v0c-0.74-0.025-1.36 0.241-1.861 0.797-0.494 0.549-0.762 1.467-0.806 2.751v0c-0.043 1.271 0.177 2.221 0.659 2.853 0.482 0.638 1.086 0.97 1.812 0.994z" fill="#ffffff" data-fill-palette-color="primary"></path><path d="M147.275 268.664v0c0.305 0.384 0.623 0.886 0.954 1.507 0.33 0.621 0.657 1.301 0.978 2.041 0.315 0.747 0.607 1.509 0.876 2.287 0.261 0.778 0.482 1.529 0.663 2.255 0.182 0.726 0.296 1.37 0.345 1.934v0c0.02 0.279-0.099 0.424-0.357 0.437v0l-1.894 0.09c-0.244 0.012-0.379-0.104-0.405-0.347v0c-0.049-0.585-0.177-1.292-0.385-2.122v0l-4.27 0.205c-0.107 0.823-0.157 1.539-0.149 2.147v0c0.005 0.245-0.122 0.373-0.38 0.385v0l-1.852 0.089c-0.098 0.005-0.179-0.019-0.245-0.073-0.065-0.053-0.098-0.146-0.097-0.278v0c0-0.58 0.052-1.244 0.156-1.99 0.111-0.747 0.263-1.523 0.455-2.33 0.193-0.799 0.41-1.586 0.653-2.36 0.25-0.774 0.509-1.482 0.779-2.124 0.27-0.649 0.538-1.18 0.805-1.591v0c0.143-0.224 0.296-0.388 0.459-0.494 0.169-0.113 0.38-0.176 0.631-0.188v0l1.12-0.053c0.258-0.012 0.477 0.03 0.656 0.126 0.172 0.09 0.34 0.239 0.504 0.447zM145.648 270.599l-0.053 0.002c-0.316 0.561-0.598 1.231-0.847 2.013-0.257 0.775-0.47 1.568-0.642 2.38v0l3.402-0.162c-0.255-0.792-0.543-1.561-0.866-2.309-0.33-0.753-0.661-1.395-0.994-1.924z" fill="#ffffff" data-fill-palette-color="primary"></path><path d="M159.023 278.145l-3.869 0.472c-0.534 0.065-0.948 0.049-1.241-0.049-0.294-0.105-0.505-0.304-0.632-0.598-0.134-0.293-0.232-0.693-0.294-1.199v0l-0.957-7.831c-0.019-0.153-0.008-0.27 0.031-0.352v0c0.194-0.369 0.476-0.769 0.845-1.201v0c0.076-0.073 0.141-0.112 0.197-0.119v0c0.062-0.008 0.132 0.016 0.209 0.069v0c0.246 0.174 0.46 0.338 0.641 0.492 0.175 0.162 0.331 0.318 0.469 0.47v0c0.059 0.077 0.097 0.189 0.115 0.334v0l0.843 6.906c0.042 0.347 0.135 0.585 0.278 0.716 0.143 0.137 0.389 0.185 0.735 0.142v0l2.38-0.301c0.125-0.015 0.221-0.006 0.289 0.028v0c0.151 0.08 0.303 0.174 0.456 0.282 0.162 0.114 0.337 0.251 0.525 0.411v0c0.057 0.063 0.088 0.116 0.093 0.157v0c0.006 0.049-0.012 0.103-0.053 0.165v0c-0.144 0.201-0.281 0.376-0.411 0.525-0.123 0.149-0.248 0.277-0.375 0.384v0c-0.064 0.05-0.155 0.082-0.274 0.097z" fill="#ffffff" data-fill-palette-color="primary"></path><path d="M170.342 275.873l-2.348 0.545c-0.524 0.122-0.937 0.149-1.239 0.084-0.304-0.073-0.535-0.249-0.692-0.528-0.165-0.277-0.305-0.664-0.42-1.161v0l-1.592-6.859c-0.118-0.51-0.165-0.926-0.139-1.247 0.021-0.313 0.152-0.566 0.394-0.759 0.241-0.199 0.623-0.36 1.146-0.481v0l2.348-0.545c1.095-0.254 2.093-0.314 2.992-0.178 0.892 0.137 1.66 0.54 2.302 1.208 0.636 0.67 1.111 1.682 1.425 3.036v0c0.314 1.354 0.339 2.496 0.075 3.424-0.272 0.931-0.773 1.675-1.504 2.232-0.736 0.565-1.652 0.975-2.748 1.229zM167.705 267.063l-0.327 0.076c-0.34 0.079-0.555 0.204-0.644 0.375-0.089 0.171-0.094 0.43-0.013 0.778v0l1.17 5.042c0.079 0.34 0.196 0.568 0.352 0.682 0.157 0.121 0.406 0.142 0.746 0.063v0l0.347-0.08c1.089-0.253 1.871-0.714 2.347-1.384 0.474-0.677 0.558-1.675 0.251-2.995v0c-0.204-0.878-0.499-1.53-0.884-1.957-0.384-0.42-0.857-0.665-1.419-0.735-0.556-0.079-1.198-0.034-1.926 0.135z" fill="#ffffff" data-fill-palette-color="primary"></path><path d="M183.601 272.107l-3.764 1.197c-0.513 0.163-0.922 0.224-1.229 0.182-0.309-0.048-0.553-0.205-0.732-0.471-0.186-0.263-0.357-0.638-0.512-1.124v0l-2.133-6.709c-0.159-0.499-0.238-0.91-0.238-1.233-0.004-0.314 0.106-0.576 0.332-0.787 0.224-0.218 0.592-0.408 1.105-0.572v0l3.515-1.117c0.12-0.038 0.216-0.047 0.288-0.026v0c0.156 0.053 0.324 0.12 0.504 0.202 0.178 0.075 0.371 0.175 0.579 0.3v0c0.074 0.05 0.118 0.094 0.131 0.134v0c0.015 0.047 0.004 0.105-0.032 0.176v0c-0.098 0.222-0.197 0.418-0.297 0.589-0.1 0.171-0.199 0.32-0.297 0.446v0c-0.061 0.063-0.144 0.112-0.251 0.146v0l-2.087 0.663c-0.333 0.106-0.537 0.248-0.612 0.426-0.075 0.178-0.059 0.437 0.049 0.776v0l0.46 1.448 2.686-0.854c0.12-0.038 0.216-0.047 0.289-0.026v0c0.154 0.046 0.321 0.111 0.501 0.192 0.18 0.082 0.374 0.185 0.582 0.31v0c0.074 0.05 0.118 0.094 0.131 0.134v0c0.013 0.04 0.002 0.098-0.033 0.176v0c-0.098 0.222-0.197 0.418-0.296 0.589-0.102 0.164-0.201 0.313-0.298 0.446v0c-0.061 0.063-0.144 0.112-0.25 0.146v0l-2.686 0.854 0.479 1.508c0.106 0.333 0.242 0.553 0.408 0.661 0.164 0.102 0.413 0.1 0.746-0.006v0l2.336-0.743c0.12-0.038 0.216-0.047 0.289-0.026v0c0.156 0.053 0.323 0.117 0.501 0.193 0.18 0.082 0.374 0.185 0.582 0.31v0c0.074 0.05 0.118 0.094 0.131 0.134v0c0.015 0.047 0.004 0.105-0.032 0.175v0c-0.098 0.222-0.197 0.418-0.297 0.589-0.1 0.171-0.199 0.32-0.298 0.447v0c-0.061 0.063-0.144 0.112-0.25 0.145z" fill="#ffffff" data-fill-palette-color="primary"></path><path d="M191.989 268.88l-3.628 1.425c-0.501 0.197-0.905 0.284-1.214 0.263-0.311-0.028-0.565-0.168-0.762-0.421-0.203-0.25-0.398-0.613-0.584-1.088v0l-2.885-7.343c-0.056-0.143-0.076-0.259-0.058-0.349v0c0.096-0.405 0.269-0.864 0.518-1.374v0c0.055-0.089 0.109-0.144 0.161-0.164v0c0.059-0.023 0.132-0.018 0.22 0.015v0c0.282 0.107 0.53 0.212 0.743 0.315 0.209 0.113 0.4 0.226 0.572 0.339v0c0.076 0.06 0.141 0.158 0.195 0.295v0l2.543 6.475c0.128 0.325 0.277 0.533 0.447 0.624 0.173 0.097 0.422 0.082 0.748-0.046v0l2.229-0.887c0.117-0.046 0.212-0.061 0.287-0.045v0c0.166 0.04 0.337 0.093 0.512 0.159 0.185 0.07 0.389 0.159 0.611 0.266v0c0.071 0.047 0.114 0.09 0.13 0.13v0c0.018 0.046 0.014 0.103-0.011 0.173v0c-0.09 0.23-0.178 0.434-0.266 0.611-0.082 0.175-0.171 0.33-0.268 0.465v0c-0.05 0.065-0.13 0.119-0.24 0.162z" fill="#ffffff" data-fill-palette-color="primary"></path><path d="M192.552 257.719l3.892 8.738c0.065 0.147 0.081 0.258 0.046 0.335-0.032 0.083-0.121 0.157-0.267 0.223v0l-1.522 0.678c-0.147 0.065-0.262 0.082-0.345 0.05-0.08-0.025-0.153-0.112-0.218-0.258v0l-3.892-8.739c-0.063-0.14-0.087-0.256-0.074-0.345v0c0.078-0.409 0.23-0.875 0.456-1.396v0c0.051-0.092 0.102-0.149 0.153-0.172v0c0.057-0.026 0.131-0.024 0.22 0.005v0c0.287 0.094 0.539 0.188 0.757 0.283 0.214 0.103 0.41 0.207 0.587 0.312v0c0.079 0.057 0.148 0.152 0.207 0.286z" fill="#ffffff" data-fill-palette-color="primary"></path><path d="M203.142 251.278v0c0.446 0.204 0.957 0.507 1.533 0.909 0.576 0.403 1.176 0.861 1.799 1.374 0.62 0.522 1.226 1.069 1.818 1.64 0.586 0.574 1.124 1.144 1.615 1.707 0.491 0.564 0.886 1.086 1.186 1.568v0c0.145 0.239 0.105 0.423-0.12 0.551v0l-1.646 0.941c-0.212 0.121-0.385 0.079-0.519-0.126v0c-0.309-0.499-0.745-1.071-1.306-1.716v0l-3.711 2.121c0.278 0.782 0.559 1.443 0.842 1.981v0c0.115 0.216 0.061 0.388-0.164 0.516v0l-1.61 0.92c-0.085 0.049-0.169 0.064-0.251 0.047-0.082-0.017-0.153-0.085-0.213-0.204v0c-0.263-0.517-0.518-1.132-0.764-1.844-0.24-0.716-0.458-1.476-0.653-2.282-0.192-0.8-0.355-1.599-0.49-2.399-0.129-0.803-0.219-1.552-0.27-2.247-0.055-0.701-0.056-1.295-0.006-1.783v0c0.026-0.264 0.087-0.48 0.185-0.649 0.1-0.178 0.259-0.329 0.477-0.453v0l0.973-0.557c0.224-0.128 0.438-0.19 0.642-0.186 0.194 0.002 0.412 0.058 0.653 0.171zM202.57 253.74l-0.046 0.026c-0.027 0.643 0.026 1.369 0.159 2.179 0.123 0.807 0.293 1.611 0.51 2.412v0l2.956-1.69c-0.587-0.59-1.193-1.144-1.819-1.663-0.636-0.522-1.223-0.943-1.76-1.264z" fill="#ffffff" data-fill-palette-color="primary"></path><path d="M210.465 249.567l4.376 6.337c0.091 0.132 0.127 0.239 0.107 0.321-0.01 0.083-0.079 0.169-0.205 0.256v0l-1.294 0.893c-0.121 0.083-0.225 0.117-0.312 0.101-0.083-0.01-0.171-0.081-0.262-0.214v0l-5.638-8.164c-0.175-0.253-0.255-0.473-0.24-0.662 0.014-0.188 0.145-0.368 0.392-0.538v0l0.603-0.417c0.218-0.151 0.447-0.262 0.687-0.334 0.235-0.077 0.534-0.093 0.897-0.046 0.357 0.05 0.829 0.187 1.416 0.41 0.589 0.213 1.342 0.542 2.26 0.986v0c0.887 0.423 1.593 0.759 2.121 1.006 0.531 0.253 0.941 0.441 1.23 0.564 0.283 0.127 0.488 0.215 0.614 0.263 0.136 0.05 0.245 0.09 0.325 0.119v0l-3.757-5.44c-0.087-0.126-0.133-0.235-0.136-0.326v0c-0.011-0.409 0.039-0.884 0.148-1.427v0c0.028-0.095 0.064-0.159 0.11-0.19v0c0.046-0.032 0.116-0.042 0.209-0.03v0c0.288 0.048 0.544 0.1 0.77 0.156 0.224 0.066 0.429 0.136 0.617 0.211v0c0.088 0.041 0.173 0.122 0.256 0.243v0l5.305 7.682c0.135 0.195 0.193 0.359 0.174 0.491-0.019 0.132-0.126 0.266-0.322 0.401v0l-0.612 0.422c-0.19 0.131-0.401 0.23-0.635 0.298-0.239 0.072-0.555 0.082-0.947 0.03-0.402-0.053-0.93-0.198-1.585-0.433-0.665-0.237-1.512-0.598-2.543-1.083v0c-0.883-0.418-1.583-0.749-2.1-0.995-0.523-0.241-0.917-0.424-1.181-0.547-0.269-0.12-0.463-0.203-0.579-0.249-0.107-0.045-0.197-0.076-0.269-0.095z" fill="#ffffff" data-fill-palette-color="primary"></path><path d="M226.979 247.217l-1.843 1.552c-0.412 0.346-0.767 0.559-1.067 0.636-0.304 0.073-0.589 0.021-0.856-0.155-0.273-0.172-0.573-0.453-0.902-0.844v0l-4.533-5.387c-0.337-0.401-0.567-0.75-0.691-1.048-0.124-0.288-0.122-0.573 0.007-0.855 0.124-0.287 0.392-0.603 0.803-0.95v0l1.844-1.551c0.86-0.724 1.722-1.23 2.585-1.518 0.857-0.283 1.724-0.273 2.6 0.031 0.871 0.308 1.754 0.994 2.648 2.057v0c0.895 1.064 1.435 2.069 1.622 3.017 0.181 0.953 0.072 1.843-0.327 2.672-0.399 0.838-1.029 1.619-1.89 2.343zM220.629 240.565l-0.256 0.216c-0.267 0.225-0.402 0.434-0.404 0.627-0.002 0.193 0.112 0.426 0.341 0.699v0l3.333 3.96c0.225 0.267 0.433 0.416 0.623 0.448 0.195 0.037 0.426-0.057 0.694-0.282v0l0.272-0.23c0.855-0.72 1.342-1.486 1.462-2.298 0.115-0.818-0.264-1.745-1.136-2.782v0c-0.58-0.689-1.139-1.137-1.676-1.342-0.533-0.2-1.066-0.203-1.598-0.011-0.531 0.182-1.083 0.514-1.655 0.995z" fill="#ffffff" data-fill-palette-color="primary"></path><path d="M238.373 236.67v0c-0.455 0.483-0.876 0.844-1.265 1.084-0.383 0.234-0.732 0.385-1.046 0.454-0.314 0.069-0.583 0.094-0.805 0.076v0c-0.08-0.017-0.157-0.032-0.232-0.045-0.07-0.018-0.137-0.048-0.202-0.09v0c-0.091-0.057-0.207-0.137-0.349-0.242-0.136-0.1-0.281-0.231-0.434-0.394v0c-0.066-0.072-0.103-0.13-0.109-0.175v0c-0.002-0.059 0.018-0.127 0.061-0.202v0c0.075-0.131 0.186-0.295 0.333-0.492 0.147-0.197 0.257-0.334 0.329-0.41v0c0.072-0.076 0.147-0.125 0.225-0.148 0.078-0.022 0.184-0.033 0.318-0.031v0c0.153 0 0.379-0.036 0.678-0.11 0.299-0.073 0.631-0.303 0.995-0.689v0c0.35-0.371 0.539-0.725 0.569-1.063 0.02-0.337-0.111-0.637-0.391-0.9v0c-0.147-0.139-0.33-0.225-0.549-0.257-0.209-0.033-0.491 0.007-0.848 0.122-0.352 0.109-0.806 0.316-1.36 0.619v0c-0.924 0.492-1.717 0.729-2.38 0.709-0.663-0.02-1.317-0.333-1.963-0.942v0c-0.534-0.503-0.857-1.051-0.969-1.646-0.112-0.595-0.044-1.207 0.204-1.837 0.248-0.63 0.652-1.243 1.212-1.837v0c0.431-0.458 0.843-0.789 1.238-0.994 0.394-0.195 0.737-0.314 1.027-0.357 0.295-0.039 0.508-0.045 0.637-0.019v0c0.08 0.017 0.137 0.033 0.171 0.047 0.035 0.014 0.073 0.04 0.114 0.078v0c0.131 0.095 0.266 0.212 0.403 0.351 0.143 0.144 0.296 0.312 0.46 0.505v0c0.047 0.073 0.066 0.134 0.058 0.184v0c-0.004 0.045-0.032 0.095-0.085 0.15v0c-0.344 0.376-0.63 0.644-0.857 0.804v0c-0.097 0.062-0.168 0.096-0.212 0.103-0.044 0.006-0.108 0.013-0.192 0.021v0c-0.129-0.006-0.301 0.009-0.518 0.045-0.221 0.041-0.468 0.207-0.741 0.497v0c-0.378 0.402-0.557 0.77-0.537 1.105 0.03 0.335 0.157 0.608 0.38 0.819v0c0.264 0.249 0.588 0.323 0.97 0.223 0.382-0.11 0.921-0.342 1.617-0.694v0c0.569-0.299 1.096-0.522 1.581-0.67 0.485-0.148 0.949-0.172 1.392-0.071 0.443 0.1 0.898 0.371 1.366 0.811v0c0.585 0.551 0.943 1.138 1.076 1.761 0.133 0.633 0.075 1.27-0.173 1.91-0.248 0.64-0.647 1.252-1.197 1.837z" fill="#ffffff" data-fill-palette-color="primary"></path><path d="M238.464 222.173l6.821 5.496c0.125 0.101 0.19 0.193 0.193 0.277 0.01 0.088-0.036 0.195-0.136 0.32v0l-1.046 1.297c-0.096 0.12-0.191 0.187-0.283 0.202-0.083 0.014-0.187-0.03-0.312-0.13v0l-6.821-5.495-1.466 1.819c-0.079 0.098-0.154 0.158-0.227 0.181v0c-0.154 0.046-0.329 0.085-0.524 0.116-0.195 0.031-0.416 0.055-0.663 0.071v0c-0.085-0.006-0.144-0.022-0.176-0.048v0c-0.033-0.026-0.058-0.078-0.077-0.156v0c-0.036-0.244-0.057-0.463-0.063-0.656-0.011-0.197-0.013-0.379-0.006-0.543v0c0.011-0.081 0.054-0.167 0.128-0.26v0l4.523-5.613c0.079-0.098 0.154-0.158 0.226-0.181v0c0.159-0.042 0.337-0.078 0.533-0.11 0.19-0.035 0.406-0.059 0.648-0.069v0c0.089 0 0.15 0.014 0.183 0.04v0c0.038 0.031 0.061 0.085 0.07 0.163v0c0.041 0.239 0.067 0.457 0.078 0.655 0.011 0.197 0.011 0.376-0.002 0.537v0c-0.016 0.086-0.058 0.173-0.129 0.26v0z" fill="#ffffff" data-fill-palette-color="primary"></path><path d="M251.652 219.977v0c-0.616 0.899-1.323 1.562-2.123 1.988-0.8 0.426-1.669 0.584-2.61 0.473-0.95-0.109-1.944-0.518-2.981-1.228v0c-1.654-1.132-2.611-2.38-2.872-3.744-0.255-1.359 0.111-2.759 1.098-4.2v0c0.923-1.349 2.048-2.145 3.374-2.388 1.332-0.239 2.779 0.176 4.342 1.245v0c1.107 0.758 1.893 1.563 2.359 2.415 0.468 0.862 0.647 1.751 0.537 2.666-0.114 0.921-0.489 1.845-1.124 2.773zM249.929 218.747v0c0.533-0.778 0.648-1.546 0.345-2.304-0.297-0.753-0.889-1.434-1.777-2.041v0c-1.032-0.706-1.927-1.061-2.686-1.065-0.763 0.002-1.413 0.395-1.95 1.179v0c-1.057 1.545-0.566 3.015 1.474 4.412v0c0.911 0.623 1.772 0.942 2.583 0.956 0.816 0.008 1.486-0.371 2.011-1.137z" fill="#ffffff" data-fill-palette-color="primary"></path><path d="M249.732 207.04l6.877 3.889c0.14 0.079 0.219 0.16 0.236 0.242 0.024 0.086-0.004 0.198-0.083 0.338v0l-0.82 1.45c-0.079 0.14-0.161 0.222-0.247 0.246-0.08 0.027-0.189 0.001-0.329-0.078v0l-7.588-4.291c-0.456-0.258-0.794-0.505-1.013-0.742-0.217-0.227-0.314-0.495-0.292-0.803 0.016-0.312 0.156-0.702 0.421-1.17v0l1.026-1.815c1.341-2.371 2.923-3.041 4.747-2.01v0c0.559 0.316 0.962 0.668 1.209 1.057 0.249 0.382 0.395 0.769 0.438 1.162 0.036 0.39 0.031 0.748-0.018 1.074v0l0.037 0.02c0.366-0.194 0.793-0.338 1.279-0.432 0.477-0.091 0.971-0.141 1.481-0.149 0.501-0.006 0.981 0.017 1.442 0.069 0.457 0.058 0.848 0.139 1.174 0.243v0c0.154 0.055 0.257 0.113 0.31 0.175 0.053 0.062 0.042 0.16-0.033 0.294v0l-0.888 1.569c-0.069 0.122-0.152 0.211-0.248 0.268-0.1 0.064-0.262 0.08-0.486 0.051v0c-1.065-0.145-1.999-0.147-2.8-0.007-0.802 0.14-1.488 0.326-2.06 0.556v0c-0.364 0.147-0.592 0.195-0.683 0.144v0c-0.073-0.041-0.149-0.141-0.229-0.298v0c-0.048-0.099-0.096-0.235-0.143-0.406-0.051-0.165-0.083-0.3-0.097-0.404v0c-0.01-0.11-0.007-0.193 0.008-0.248 0.015-0.056 0.051-0.132 0.105-0.23v0c0.193-0.34 0.237-0.689 0.133-1.044-0.104-0.356-0.408-0.676-0.912-0.961v0c-0.474-0.268-0.89-0.343-1.246-0.223-0.353 0.113-0.648 0.38-0.886 0.799v0l-0.227 0.401c-0.172 0.304-0.225 0.547-0.159 0.729 0.066 0.182 0.254 0.36 0.564 0.535z" fill="#ffffff" data-fill-palette-color="primary"></path><path d="M263.401 198.574l-1.69 3.57c-0.23 0.486-0.465 0.827-0.705 1.023-0.246 0.193-0.527 0.264-0.843 0.215-0.32-0.043-0.71-0.174-1.171-0.392v0l-6.364-3.013c-0.473-0.224-0.828-0.446-1.064-0.666-0.233-0.211-0.349-0.471-0.349-0.78-0.007-0.312 0.105-0.712 0.335-1.198v0l1.578-3.333c0.054-0.114 0.113-0.19 0.178-0.229v0c0.145-0.078 0.309-0.155 0.492-0.231 0.176-0.079 0.381-0.152 0.614-0.219v0c0.087-0.021 0.149-0.022 0.188-0.004v0c0.044 0.021 0.08 0.069 0.106 0.143v0c0.095 0.223 0.172 0.429 0.229 0.618 0.057 0.189 0.098 0.363 0.123 0.522v0c0.005 0.087-0.016 0.182-0.064 0.283v0l-0.937 1.979c-0.149 0.316-0.185 0.562-0.106 0.738 0.079 0.176 0.279 0.341 0.601 0.494v0l1.373 0.65 1.206-2.548c0.054-0.114 0.113-0.19 0.178-0.228v0c0.139-0.081 0.3-0.16 0.482-0.236 0.183-0.076 0.391-0.147 0.624-0.215v0c0.087-0.021 0.149-0.022 0.187-0.004v0c0.038 0.018 0.073 0.066 0.106 0.143v0c0.095 0.223 0.172 0.429 0.229 0.619 0.051 0.186 0.092 0.36 0.124 0.522v0c0.005 0.087-0.016 0.182-0.064 0.283v0l-1.207 2.547 1.43 0.677c0.316 0.149 0.57 0.2 0.763 0.153 0.186-0.051 0.354-0.234 0.504-0.55v0l1.049-2.216c0.054-0.114 0.113-0.19 0.178-0.229v0c0.145-0.078 0.306-0.157 0.482-0.235 0.183-0.076 0.391-0.147 0.624-0.215v0c0.087-0.021 0.149-0.022 0.187-0.004v0c0.044 0.021 0.08 0.069 0.106 0.143v0c0.095 0.223 0.172 0.429 0.229 0.618 0.057 0.189 0.098 0.363 0.124 0.523v0c0.005 0.087-0.016 0.182-0.065 0.282z" fill="#ffffff" data-fill-palette-color="primary"></path></g></svg></g></svg></g></svg></g><g></g></svg></g><defs></defs></svg><rect width="279.72" height="279.72" fill="none" stroke="none" visibility="hidden"></rect></g></svg></g></svg>